<?xml version="1.0" encoding="UTF-8"?>
<svg version="1.1" xmlns="http://www.w3.org/2000/svg" width="512" height="512">
<path d="M0 0 C19.41513413 15.83036047 34.05409201 37.67987498 37 63 C38.99936484 91.27427967 34.23100056 117.17178286 15.328125 139.16015625 C-1.08462646 157.71519166 -23.00986243 171.44500696 -48.21777344 173.22753906 C-76.8329536 174.49950262 -101.20094475 168.80835389 -123.1875 149.625 C-141.72962913 132.23989973 -154.23970686 110.00534464 -155.3828125 84.2890625 C-156.09445376 55.78869783 -149.21659255 31.57486407 -129.3359375 10.37109375 C-94.83017582 -24.65398542 -39.47352935 -30.18232772 0 0 Z " fill="#FCD040" transform="translate(315,339)"/>
<path d="M0 0 C19.41513413 15.83036047 34.05409201 37.67987498 37 63 C38.99936484 91.27427967 34.23100056 117.17178286 15.328125 139.16015625 C-1.08462646 157.71519166 -23.00986243 171.44500696 -48.21777344 173.22753906 C-76.8329536 174.49950262 -101.20094475 168.80835389 -123.1875 149.625 C-141.72962913 132.23989973 -154.23970686 110.00534464 -155.3828125 84.2890625 C-156.09445376 55.78869783 -149.21659255 31.57486407 -129.3359375 10.37109375 C-94.83017582 -24.65398542 -39.47352935 -30.18232772 0 0 Z " fill="#EC4035" transform="translate(475,179)"/>
<path d="M0 0 C19.41513413 15.83036047 34.05409201 37.67987498 37 63 C39.00706443 91.38316441 34.11130766 116.2402984 15.84375 138.64453125 C-0.57892148 157.46699451 -22.83614019 171.43272251 -48.21777344 173.22753906 C-77.36373868 174.52309637 -102.3082106 168.52198278 -124.3125 148.5 C-142.38159319 131.54293965 -154.27127966 109.29505609 -155.3828125 84.2890625 C-156.09445376 55.78869783 -149.21659255 31.57486407 -129.3359375 10.37109375 C-94.83017582 -24.65398542 -39.47352935 -30.18232772 0 0 Z " fill="#1DC750" transform="translate(155,179)"/>
<path d="M0 0 C19.41513413 15.83036047 34.05409201 37.67987498 37 63 C39.00706443 91.38316441 34.11130766 116.2402984 15.84375 138.64453125 C-0.57892148 157.46699451 -22.83614019 171.43272251 -48.21777344 173.22753906 C-76.8329536 174.49950262 -101.20094475 168.80835389 -123.1875 149.625 C-141.72962913 132.23989973 -154.23970686 110.00534464 -155.3828125 84.2890625 C-156.09445376 55.78869783 -149.21659255 31.57486407 -129.3359375 10.37109375 C-94.83017582 -24.65398542 -39.47352935 -30.18232772 0 0 Z " fill="#2A7DC7" transform="translate(315,19)"/>
<path d="M0 0 C19.41513413 15.83036047 34.05409201 37.67987498 37 63 C39.00706443 91.38316441 34.11130766 116.2402984 15.84375 138.64453125 C-0.57892148 157.46699451 -22.83614019 171.43272251 -48.21777344 173.22753906 C-76.8329536 174.49950262 -101.20094475 168.80835389 -123.1875 149.625 C-141.72962913 132.23989973 -154.23970686 110.00534464 -155.3828125 84.2890625 C-156.09445376 55.78869783 -149.21659255 31.57486407 -129.3359375 10.37109375 C-94.83017582 -24.65398542 -39.47352935 -30.18232772 0 0 Z M-110 22 C-110.91265625 22.77537109 -110.91265625 22.77537109 -111.84375 23.56640625 C-123.53500245 34.16824654 -131.95440188 51.23467622 -133.23754883 66.90014648 C-133.83391352 80.76044691 -133.57744724 93.16745648 -128 106 C-127.31357422 107.62421875 -127.31357422 107.62421875 -126.61328125 109.28125 C-123.35784544 116.34509976 -119.14528149 122.19506703 -114 128 C-113.48050781 128.61359375 -112.96101563 129.2271875 -112.42578125 129.859375 C-101.4693892 141.89208768 -84.38490542 149.90273778 -68.29882812 151.22143555 C-45.22933695 152.18403264 -25.57344277 147.79706588 -8 132 C-7.38898438 131.48179687 -6.77796875 130.96359375 -6.1484375 130.4296875 C6.26058926 119.15390519 13.96659547 101.62225418 15.22143555 85.08105469 C16.10186692 61.75056187 11.85884678 43.92877658 -4 26 C-4.51820313 25.38769531 -5.03640625 24.77539062 -5.5703125 24.14453125 C-16.0125973 12.67900749 -33.34578299 3.93780371 -48.77050781 2.79467773 C-72.44187204 2.04706033 -92.07461063 5.64642649 -110 22 Z " fill="#000001" transform="translate(315,19)"/>
<path d="M0 0 C19.41513413 15.83036047 34.05409201 37.67987498 37 63 C39.00706443 91.38316441 34.11130766 116.2402984 15.84375 138.64453125 C-0.57892148 157.46699451 -22.83614019 171.43272251 -48.21777344 173.22753906 C-77.36373868 174.52309637 -102.3082106 168.52198278 -124.3125 148.5 C-142.38159319 131.54293965 -154.27127966 109.29505609 -155.3828125 84.2890625 C-156.09445376 55.78869783 -149.21659255 31.57486407 -129.3359375 10.37109375 C-94.83017582 -24.65398542 -39.47352935 -30.18232772 0 0 Z M-110 22 C-110.91265625 22.77537109 -110.91265625 22.77537109 -111.84375 23.56640625 C-123.53133628 34.16492199 -131.9477053 51.22429878 -133.23754883 66.8840332 C-134.28005276 90.96453989 -130.15190329 109.4906197 -114 128 C-113.48050781 128.61488281 -112.96101563 129.22976563 -112.42578125 129.86328125 C-99.86978719 143.6211085 -80.82583281 150.72522286 -62.68359375 152.28515625 C-41.39734679 152.88587242 -21.73261002 144.83076796 -6.34375 130.3671875 C7.60514555 116.27880299 15.92321909 97.34044559 16.5625 77.4375 C15.74859204 58.02892548 9.1472877 40.41093294 -4 26 C-4.51691406 25.3915625 -5.03382813 24.783125 -5.56640625 24.15625 C-15.97883235 12.67387535 -33.36171433 3.93662304 -48.77050781 2.79467773 C-72.44187204 2.04706033 -92.07461063 5.64642649 -110 22 Z " fill="#000000" transform="translate(155,179)"/>
<path d="M0 0 C19.41513413 15.83036047 34.05409201 37.67987498 37 63 C38.99936484 91.27427967 34.23100056 117.17178286 15.328125 139.16015625 C-1.08462646 157.71519166 -23.00986243 171.44500696 -48.21777344 173.22753906 C-76.8329536 174.49950262 -101.20094475 168.80835389 -123.1875 149.625 C-141.72962913 132.23989973 -154.23970686 110.00534464 -155.3828125 84.2890625 C-156.09445376 55.78869783 -149.21659255 31.57486407 -129.3359375 10.37109375 C-94.83017582 -24.65398542 -39.47352935 -30.18232772 0 0 Z M-92.125 9.6875 C-92.80167725 10.03417725 -93.47835449 10.38085449 -94.17553711 10.73803711 C-100.03278241 13.83465827 -105.10191243 17.53140892 -110 22 C-110.91265625 22.77537109 -110.91265625 22.77537109 -111.84375 23.56640625 C-123.53133628 34.16492199 -131.9477053 51.22429878 -133.23754883 66.8840332 C-134.28005276 90.96453989 -130.15190329 109.4906197 -114 128 C-113.48050781 128.61488281 -112.96101563 129.22976563 -112.42578125 129.86328125 C-99.86978719 143.6211085 -80.82583281 150.72522286 -62.68359375 152.28515625 C-41.39734679 152.88587242 -21.73261002 144.83076796 -6.34375 130.3671875 C7.60514555 116.27880299 15.92321909 97.34044559 16.5625 77.4375 C15.74859204 58.02892548 9.1472877 40.41093294 -4 26 C-4.51691406 25.3915625 -5.03382813 24.783125 -5.56640625 24.15625 C-16.00338399 12.64680087 -33.4323814 3.89586093 -48.88037109 2.79467773 C-52.17271016 2.69542526 -55.45623593 2.67801335 -58.75 2.6875 C-59.8534375 2.67138672 -60.956875 2.65527344 -62.09375 2.63867188 C-72.85416584 2.63235708 -82.56911919 4.69768713 -92.125 9.6875 Z " fill="#010100" transform="translate(315,339)"/>
<path d="M0 0 C19.41513413 15.83036047 34.05409201 37.67987498 37 63 C38.99936484 91.27427967 34.23100056 117.17178286 15.328125 139.16015625 C-1.08462646 157.71519166 -23.00986243 171.44500696 -48.21777344 173.22753906 C-76.8329536 174.49950262 -101.20094475 168.80835389 -123.1875 149.625 C-141.72962913 132.23989973 -154.23970686 110.00534464 -155.3828125 84.2890625 C-156.09445376 55.78869783 -149.21659255 31.57486407 -129.3359375 10.37109375 C-94.83017582 -24.65398542 -39.47352935 -30.18232772 0 0 Z M-92.125 9.6875 C-92.80167725 10.03417725 -93.47835449 10.38085449 -94.17553711 10.73803711 C-100.03278241 13.83465827 -105.10191243 17.53140892 -110 22 C-110.91265625 22.77537109 -110.91265625 22.77537109 -111.84375 23.56640625 C-123.53133628 34.16492199 -131.9477053 51.22429878 -133.23754883 66.8840332 C-134.28005276 90.96453989 -130.15190329 109.4906197 -114 128 C-113.48050781 128.61488281 -112.96101563 129.22976563 -112.42578125 129.86328125 C-99.69396848 143.8137562 -80.6960876 150.55734199 -62.37890625 152.35546875 C-42.38153003 153.15191969 -22.76801696 145.27522102 -8 132 C-7.38898438 131.48179687 -6.77796875 130.96359375 -6.1484375 130.4296875 C7.2112654 118.29004879 14.71564927 99.11219525 16.3203125 81.48046875 C16.98261728 60.75032912 9.99255258 41.33744004 -4 26 C-4.51691406 25.3915625 -5.03382813 24.783125 -5.56640625 24.15625 C-16.00338399 12.64680087 -33.4323814 3.89586093 -48.88037109 2.79467773 C-52.17271016 2.69542526 -55.45623593 2.67801335 -58.75 2.6875 C-59.8534375 2.67138672 -60.956875 2.65527344 -62.09375 2.63867188 C-72.85416584 2.63235708 -82.56911919 4.69768713 -92.125 9.6875 Z " fill="#010000" transform="translate(475,179)"/>
<path d="M0 0 C0.7219606 -0.01140015 1.4439212 -0.02280029 2.1877594 -0.0345459 C3.72008424 -0.05343815 5.2524902 -0.06651087 6.78491211 -0.07421875 C9.09055703 -0.09343046 11.39247375 -0.1553676 13.69726562 -0.21875 C24.37496382 -0.37271429 32.85065961 1.22137574 41.14819336 8.5871582 C47.60751182 15.12828904 50.83772221 22.29062892 51.12890625 31.46875 C50.86986322 38.42718177 49.42749367 43.96634336 45.37890625 49.65625 C43.36644979 52.2329382 43.36644979 52.2329382 44.19140625 54.84375 C45.02261437 56.26373053 45.85551243 57.68274018 46.6953125 59.09765625 C47.04464844 59.69449219 47.39398438 60.29132813 47.75390625 60.90625 C48.09550781 61.4528125 48.43710937 61.999375 48.7890625 62.5625 C51.87781337 68.8737139 51.60613491 77.39775752 50.078125 84.09375 C46.51937795 94.12722186 39.76471048 100.61072409 30.29833984 105.17138672 C24.11232327 107.2892202 18.01936386 107.26031608 11.53442383 107.13354492 C9.23139397 107.09335716 6.93400367 107.11305699 4.63085938 107.13867188 C3.1523216 107.13112286 1.67379637 107.12017957 0.1953125 107.10546875 C-0.48494492 107.11245285 -1.16520233 107.11943695 -1.86607361 107.12663269 C-5.65393075 107.01452827 -7.2363828 106.46478909 -10.21508789 104.05004883 C-13.79710375 99.52647451 -13.46231022 95.31316904 -13.46972656 89.79150391 C-13.47469147 88.91152237 -13.47965637 88.03154083 -13.48477173 87.12489319 C-13.49938891 84.21085837 -13.50619434 81.29687797 -13.51171875 78.3828125 C-13.51747022 76.35883584 -13.52322795 74.33485919 -13.5289917 72.31088257 C-13.53950018 68.0656509 -13.54534397 63.82043816 -13.54882812 59.57519531 C-13.55431493 54.1354375 -13.57834765 48.69592973 -13.60680008 43.25625038 C-13.62542242 39.0749539 -13.63063183 34.89371772 -13.632164 30.71238327 C-13.63519157 28.70691942 -13.64322359 26.70145666 -13.65634918 24.69603348 C-13.67340238 21.89042364 -13.67153127 19.08542578 -13.66503906 16.27978516 C-13.67425385 15.45155746 -13.68346863 14.62332977 -13.69296265 13.77000427 C-13.65954841 9.16074365 -13.31036712 6.13841491 -10.30859375 2.40625 C-6.74749847 0.03218648 -4.12094695 0.0507212 0 0 Z " fill="#010100" transform="translate(237.30859375,362.59375)"/>
<path d="M0 0 C9.08095663 5.26843544 14.74136267 12.45448464 17.5 22.5625 C18.06415933 28.14550344 18.04044915 33.69047243 17.99609375 39.296875 C17.99624902 40.90488755 17.99774268 42.51290046 18.00050354 44.12091064 C18.00188049 47.47286748 17.98944313 50.82439274 17.96655273 54.17626953 C17.93807769 58.46232525 17.94093962 62.74767003 17.95364285 67.03377914 C17.96060928 70.34702587 17.95280131 73.66010939 17.94038582 76.97333527 C17.93588715 78.55370711 17.9355206 80.13409655 17.93945122 81.71446991 C17.94237542 83.92296617 17.92580374 86.1304937 17.90405273 88.33886719 C17.89864975 89.59221863 17.89324677 90.84557007 17.88768005 92.13690186 C17.40119831 96.43552634 16.252276 100.13471955 12.8125 102.9375 C9.33798354 103.8765585 6.03864272 104.15227379 2.5 103.5625 C-0.3100346 101.76886089 -2.00940468 100.54369065 -3.5 97.5625 C-3.58510205 95.6031396 -3.60717656 93.64087206 -3.59765625 91.6796875 C-3.59443359 90.51308594 -3.59121094 89.34648437 -3.58789062 88.14453125 C-3.57532227 86.30955078 -3.57532227 86.30955078 -3.5625 84.4375 C-3.55798828 83.20644531 -3.55347656 81.97539062 -3.54882812 80.70703125 C-3.53701341 77.65883361 -3.5190775 74.61066084 -3.5 71.5625 C-10.76 71.5625 -18.02 71.5625 -25.5 71.5625 C-25.45359375 73.38136719 -25.4071875 75.20023437 -25.359375 77.07421875 C-25.32185483 79.46612941 -25.28545494 81.85805783 -25.25 84.25 C-25.19972656 86.04727539 -25.19972656 86.04727539 -25.1484375 87.88085938 C-25.13554687 89.03779297 -25.12265625 90.19472656 -25.109375 91.38671875 C-25.08842773 92.44979248 -25.06748047 93.51286621 -25.04589844 94.6081543 C-25.61080794 98.28340694 -26.94506303 99.91521234 -29.5 102.5625 C-32.97531087 104.30015543 -36.7088001 104.15835352 -40.5 103.5625 C-43.78175318 101.03281526 -45.19243777 99.48518669 -46.5 95.5625 C-46.61008262 93.27003081 -46.6590713 90.97448402 -46.67700195 88.67944336 C-46.68357315 87.98305756 -46.69014435 87.28667175 -46.69691467 86.56918335 C-46.71662796 84.26356897 -46.72830959 81.95801987 -46.73828125 79.65234375 C-46.74235678 78.86219942 -46.7464323 78.07205509 -46.75063133 77.257967 C-46.77148976 73.07082507 -46.78578901 68.88371583 -46.79516602 64.6965332 C-46.80619342 60.39159737 -46.84055088 56.08718371 -46.88033772 51.7824316 C-46.90661554 48.4561931 -46.91486798 45.13007651 -46.91844749 41.80374336 C-46.92328948 40.21826233 -46.93483458 38.63278587 -46.95348549 37.04740715 C-47.08956124 24.70753439 -45.79432207 14.84412376 -36.875 5.61328125 C-26.30936603 -3.51000466 -12.79284416 -5.76647142 0 0 Z " fill="#010000" transform="translate(430.5,205.4375)"/>
<path d="M0 0 C5.53302961 3.82643818 9.06975368 8.81217844 12.9375 14.25 C14.11204668 15.88109805 15.28782601 17.51130919 16.46484375 19.140625 C17.03960449 19.94048828 17.61436523 20.74035156 18.20654297 21.56445312 C20.61997486 24.841937 23.15695495 28.01494722 25.71704102 31.17871094 C27 33 27 33 27 35 C27.66 35 28.32 35 29 35 C29.2686084 34.42652832 29.5372168 33.85305664 29.81396484 33.26220703 C31.0354438 30.93239559 32.41489908 28.92028861 33.9765625 26.8046875 C34.85380981 25.6134729 34.85380981 25.6134729 35.7487793 24.39819336 C36.36793213 23.56553955 36.98708496 22.73288574 37.625 21.875 C38.25510986 21.02494385 38.88521973 20.1748877 39.53442383 19.29907227 C51.81615502 2.78922998 51.81615502 2.78922998 56 0 C61.01404405 -0.5753821 63.03250787 -0.56290451 67.4375 2 C69.95804553 4.95088258 71.15468995 6.93383752 71.36035156 10.8527832 C70.92025424 13.47517886 70.00376375 14.92725475 68.484375 17.10546875 C67.93749023 17.89066895 67.39060547 18.67586914 66.82714844 19.48486328 C63.62090319 23.89837725 60.32930586 28.24128628 57 32.5625 C54.96347483 35.21725603 52.92757765 37.87226143 50.90234375 40.53564453 C49.67121026 42.13049328 48.4146563 43.70617013 47.12890625 45.25732422 C46.57074219 45.94455566 46.01257813 46.63178711 45.4375 47.33984375 C44.94121094 47.93015381 44.44492187 48.52046387 43.93359375 49.12866211 C42.59534056 51.81111784 43.06125647 53.19207686 44 56 C45.40793228 58.33821711 45.40793228 58.33821711 47.24609375 60.58984375 C47.91439209 61.45013184 48.58269043 62.31041992 49.27124023 63.19677734 C49.98610596 64.10121582 50.70097168 65.0056543 51.4375 65.9375 C52.89703834 67.82328673 54.35537055 69.71000758 55.8125 71.59765625 C56.52664063 72.51820801 57.24078125 73.43875977 57.9765625 74.38720703 C60.66488197 77.85853847 63.33052845 81.34216036 65.9375 84.875 C66.70964844 85.90367187 67.48179687 86.93234375 68.27734375 87.9921875 C70.26028659 91.45446865 70.83657592 94.02646025 71 98 C69.02061533 101.74669241 67.52983947 103.64677369 64 106 C57.14185935 106.78699975 57.14185935 106.78699975 53.171875 104.05078125 C49.14953948 100.47825802 46.16568443 96.11289296 43.0625 91.75 C41.88795332 90.11890195 40.71217399 88.48869081 39.53515625 86.859375 C38.96039551 86.05951172 38.38563477 85.25964844 37.79345703 84.43554688 C35.38002514 81.158063 32.84304505 77.98505278 30.28295898 74.82128906 C29 73 29 73 29 71 C28.34 71 27.68 71 27 71 C26.7313916 71.57347168 26.4627832 72.14694336 26.18603516 72.73779297 C24.9645562 75.06760441 23.58510092 77.07971139 22.0234375 79.1953125 C21.14619019 80.3865271 21.14619019 80.3865271 20.2512207 81.60180664 C19.63206787 82.43446045 19.01291504 83.26711426 18.375 84.125 C17.74489014 84.97505615 17.11478027 85.8251123 16.46557617 86.70092773 C4.18384498 103.21077002 4.18384498 103.21077002 0 106 C-6.90258449 106.66799205 -6.90258449 106.66799205 -10.875 104.25 C-13.96809643 100.97495672 -15.03422509 99.50019983 -14.9296875 94.91796875 C-14.10839965 89.75854502 -10.88463967 86.15079966 -7.75 82.125 C-7.13116943 81.30435059 -6.51233887 80.48370117 -5.87475586 79.63818359 C-2.69016249 75.43001419 0.56367772 71.28090382 3.85546875 67.15625 C4.4577832 66.39296387 5.06009766 65.62967773 5.68066406 64.84326172 C6.83105667 63.3907232 7.99536402 61.94907202 9.17480469 60.52001953 C9.69333008 59.86630371 10.21185547 59.21258789 10.74609375 58.5390625 C11.20685303 57.97396973 11.6676123 57.40887695 12.14233398 56.82666016 C13.38651959 54.17678919 12.90357426 52.74758737 12 50 C10.59206772 47.66178289 10.59206772 47.66178289 8.75390625 45.41015625 C8.08560791 44.54986816 7.41730957 43.68958008 6.72875977 42.80322266 C6.01389404 41.89878418 5.29902832 40.9943457 4.5625 40.0625 C3.10296166 38.17671327 1.64462945 36.28999242 0.1875 34.40234375 C-0.52664062 33.48179199 -1.24078125 32.56124023 -1.9765625 31.61279297 C-4.66488197 28.14146153 -7.33052845 24.65783964 -9.9375 21.125 C-10.70964844 20.09632812 -11.48179687 19.06765625 -12.27734375 18.0078125 C-14.25107322 14.56161819 -14.79364255 11.9489313 -15 8 C-12.19211414 1.49752749 -7.19362703 -1.94560731 0 0 Z " fill="#000101" transform="translate(228,43)"/>
<path d="M0 0 C-1.051875 0.72703125 -1.051875 0.72703125 -2.125 1.46875 C-12.43259176 8.40174777 -12.43259176 8.40174777 -20 18 C-19.01 18.33 -18.02 18.66 -17 19 C-18.258125 19.268125 -19.51625 19.53625 -20.8125 19.8125 C-23.14331635 20.41373531 -24.87880874 20.92572149 -26.9375 22.1875 C-28.66630917 25.13664506 -28.88491368 27.60495345 -29 31 C-26.62100826 37.08472886 -22.34541829 42.01281867 -18.375 47.125 C-17.66093994 48.05699219 -16.94687988 48.98898438 -16.21118164 49.94921875 C-13.14496964 53.94986556 -10.06482542 57.93583686 -6.91015625 61.8671875 C-6.09417969 62.90101562 -5.27820313 63.93484375 -4.4375 65 C-3.73496094 65.86625 -3.03242188 66.7325 -2.30859375 67.625 C-1 70 -1 70 -1.21533203 72.36157227 C-2.10734112 75.36093201 -3.31492071 77.135068 -5.24609375 79.58984375 C-6.24854126 80.88027588 -6.24854126 80.88027588 -7.27124023 82.19677734 C-7.98610596 83.10121582 -8.70097168 84.0056543 -9.4375 84.9375 C-10.89703834 86.82328673 -12.35537055 88.71000758 -13.8125 90.59765625 C-14.52664062 91.51820801 -15.24078125 92.43875977 -15.9765625 93.38720703 C-18.66488197 96.85853847 -21.33052845 100.34216036 -23.9375 103.875 C-24.70964844 104.90367187 -25.48179687 105.93234375 -26.27734375 106.9921875 C-28.25758911 110.44975877 -28.81362212 113.03481068 -29 117 C-27.53720807 120.3707814 -26.45459961 122.42093082 -22.94921875 123.81640625 C-20.98950745 124.31416596 -18.99442731 124.66759545 -17 125 C-17.99 125.33 -18.98 125.66 -20 126 C-15.35143462 131.82260578 -10.19250172 136.4958676 -4.35546875 141.1171875 C-2 143 -2 143 0 145 C-14.02574482 144.74954027 -26.6484517 136.87718984 -37 128 C-37.72574219 127.38640625 -38.45148438 126.7728125 -39.19921875 126.140625 C-50.96208458 115.32525917 -59.97298752 98.13488946 -61.22143555 82.16796875 C-62.10554264 58.15946555 -58.35620694 39.49105323 -42 21 C-41.48179687 20.38769531 -40.96359375 19.77539062 -40.4296875 19.14453125 C-32.36317271 10.28757909 -12.48270773 -4.16090258 0 0 Z " fill="#1C4D9F" transform="translate(243,24)"/>
<path d="M0 0 C6.95094558 2.17217049 11.06629882 9.29564104 15.0625 14.9140625 C16.23704668 16.54516055 17.41282601 18.17537169 18.58984375 19.8046875 C19.16460449 20.60455078 19.73936523 21.40441406 20.33154297 22.22851562 C22.74497486 25.5059995 25.28195495 28.67900972 27.84204102 31.84277344 C29.125 33.6640625 29.125 33.6640625 29.125 35.6640625 C29.785 35.6640625 30.445 35.6640625 31.125 35.6640625 C31.3936084 35.09059082 31.6622168 34.51711914 31.93896484 33.92626953 C33.1604438 31.59645809 34.53989908 29.58435111 36.1015625 27.46875 C36.97880981 26.2775354 36.97880981 26.2775354 37.8737793 25.06225586 C38.49293213 24.22960205 39.11208496 23.39694824 39.75 22.5390625 C40.38010986 21.68900635 41.01021973 20.8389502 41.65942383 19.96313477 C53.94115502 3.45329248 53.94115502 3.45329248 58.125 0.6640625 C63.13904405 0.0886804 65.15750787 0.10115799 69.5625 2.6640625 C72.08277289 5.61462588 73.27899371 7.59753903 73.48608398 11.51586914 C73.04436205 14.14380105 72.12050555 15.60251555 70.59765625 17.78515625 C70.05028809 18.57100098 69.50291992 19.3568457 68.93896484 20.16650391 C65.79866881 24.4902224 62.57494044 28.74446095 59.3125 32.9765625 C57.28315548 35.61966 55.25754675 38.26243179 53.26782227 40.93554688 C51.125 43.6640625 51.125 43.6640625 48.63647461 46.23632812 C40.0467245 55.71584301 41.00424754 65.33918289 41.3125 77.5390625 C41.35906345 80.46411545 41.3923923 83.3881 41.40339661 86.31350708 C41.41287174 88.12128335 41.44384036 89.92911873 41.49980164 91.73605347 C41.56213427 97.22542951 40.84075623 100.33563515 37.125 104.6640625 C33.4328813 107.12547497 30.41145195 107.35056457 26.125 106.6640625 C22.55196268 104.48917022 20.70459539 102.49281756 19.125 98.6640625 C18.94073486 96.67172241 18.94073486 96.67172241 19.02832031 94.54833984 C19.05300888 93.74524384 19.07769745 92.94214783 19.10313416 92.11471558 C19.15262962 90.82043137 19.15262962 90.82043137 19.203125 89.5 C20.92650507 65.85652468 20.92650507 65.85652468 11.9375 45.1640625 C10.05860204 43.2452453 8.13673347 41.41717369 6.13720703 39.62451172 C2.3439337 35.92880863 -0.56812936 31.53212725 -3.625 27.2265625 C-4.78472095 25.6432572 -5.94604417 24.06112359 -7.109375 22.48046875 C-10.79263954 17.4449269 -12.46045882 14.44242708 -12.3125 8.1171875 C-11.83359352 5.43189046 -11.33715418 4.39457786 -9.375 2.5390625 C-5.87010777 0.66144166 -3.86292622 0.08047763 0 0 Z " fill="#000301" transform="translate(65.875,202.3359375)"/>
<path d="M0 0 C-0.68964844 0.47308594 -1.37929687 0.94617188 -2.08984375 1.43359375 C-20.08640147 14.09783807 -33.17833128 32.00066258 -38.3828125 53.6015625 C-42.21458392 76.32081908 -38.03213564 100.99698408 -25.22900391 120.28710938 C-19.34293136 128.49066221 -11.99187969 135.44302943 -3.9609375 141.51171875 C-2 143 -2 143 0 145 C-17.618447 144.11907765 -32.46029477 133.19642407 -44.15625 120.6953125 C-56.2680903 106.48719215 -61.30397026 90.23728454 -61.4375 71.875 C-61.44773193 70.79057617 -61.45796387 69.70615234 -61.46850586 68.58886719 C-61.35361749 57.98700092 -59.22899876 48.29047857 -54.3125 38.875 C-53.96582275 38.19832275 -53.61914551 37.52164551 -53.26196289 36.82446289 C-50.16534173 30.96721759 -46.46859108 25.89808757 -42 21 C-41.48308594 20.3915625 -40.96617187 19.783125 -40.43359375 19.15625 C-32.38889026 10.28489778 -12.47267436 -4.15755812 0 0 Z " fill="#FCAE27" transform="translate(243,344)"/>
<path d="M0 0 C-0.68964844 0.47308594 -1.37929688 0.94617188 -2.08984375 1.43359375 C-20.08443283 14.09645273 -33.18880096 32.00596418 -38.3828125 53.609375 C-42.31752461 76.95013181 -38.03795637 100.05793527 -25.26171875 119.8671875 C-19.23748967 128.21162916 -12.20734511 135.24914947 -3.99609375 141.4765625 C-2 143 -2 143 0 145 C-17.618447 144.11907765 -32.46029477 133.19642407 -44.15625 120.6953125 C-56.2680903 106.48719215 -61.30397026 90.23728454 -61.4375 71.875 C-61.44773193 70.79057617 -61.45796387 69.70615234 -61.46850586 68.58886719 C-61.35361749 57.98700092 -59.22899876 48.29047857 -54.3125 38.875 C-53.96582275 38.19832275 -53.61914551 37.52164551 -53.26196289 36.82446289 C-50.16534173 30.96721759 -46.46859108 25.89808757 -42 21 C-41.48308594 20.3915625 -40.96617187 19.783125 -40.43359375 19.15625 C-32.38889026 10.28489778 -12.47267436 -4.15755812 0 0 Z " fill="#BC3B35" transform="translate(403,184)"/>
<path d="M0 0 C-0.68964844 0.47308594 -1.37929687 0.94617188 -2.08984375 1.43359375 C-8.71317195 6.09445433 -14.46282505 11.09368005 -20 17 C-19.01 17.66 -18.02 18.32 -17 19 C-18.258125 19.268125 -19.51625 19.53625 -20.8125 19.8125 C-23.10144714 20.40697921 -24.88762542 20.93475024 -26.9375 22.125 C-28.70287733 25.24037176 -28.70957067 28.45676216 -29 32 C-29.66 32 -30.32 32 -31 32 C-33.14320958 38.29282814 -35.1363851 44.61882649 -37 51 C-37.35320313 51.98355469 -37.70640625 52.96710938 -38.0703125 53.98046875 C-39.65596991 59.57743939 -39.32831868 65.42000805 -39.3125 71.1875 C-39.32861328 72.34314453 -39.34472656 73.49878906 -39.36132812 74.68945312 C-39.37362191 96.5846901 -29.91534207 116.66152259 -14.82421875 132.26171875 C-11.39204792 135.58945285 -7.8032194 138.58923841 -3.99609375 141.4765625 C-2 143 -2 143 0 145 C-17.618447 144.11907765 -32.46029477 133.19642407 -44.15625 120.6953125 C-56.2680903 106.48719215 -61.30397026 90.23728454 -61.4375 71.875 C-61.44773193 70.79057617 -61.45796387 69.70615234 -61.46850586 68.58886719 C-61.35361749 57.98700092 -59.22899876 48.29047857 -54.3125 38.875 C-53.96582275 38.19832275 -53.61914551 37.52164551 -53.26196289 36.82446289 C-50.16534173 30.96721759 -46.46859108 25.89808757 -42 21 C-41.48308594 20.3915625 -40.96617188 19.783125 -40.43359375 19.15625 C-32.38889026 10.28489778 -12.47267436 -4.15755812 0 0 Z " fill="#009F4A" transform="translate(83,184)"/>
<path d="M0 0 C0.66 0 1.32 0 2 0 C3.2265625 1.59741211 3.2265625 1.59741211 4.625 3.83984375 C8.14581923 9.29946362 12.0369116 14.41867944 16 19.5625 C18.03652517 22.21725603 20.07242235 24.87226143 22.09765625 27.53564453 C23.32878974 29.13049328 24.5853437 30.70617013 25.87109375 32.25732422 C26.42925781 32.94455566 26.98742187 33.63178711 27.5625 34.33984375 C28.05878906 34.93015381 28.55507812 35.52046387 29.06640625 36.12866211 C30.40465944 38.81111784 29.93874353 40.19207686 29 43 C27.57641602 45.27319336 27.57641602 45.27319336 25.75390625 47.58984375 C25.08560791 48.45053467 24.41730957 49.31122559 23.72875977 50.19799805 C22.65646118 51.55405151 22.65646118 51.55405151 21.5625 52.9375 C20.10256638 54.81646602 18.64423514 56.69667816 17.1875 58.578125 C16.47335938 59.49787109 15.75921875 60.41761719 15.0234375 61.36523438 C12.2936998 64.91969013 9.6570813 68.53362465 7.0625 72.1875 C6.65652588 72.75654053 6.25055176 73.32558105 5.83227539 73.91186523 C4.426667 75.8988914 3.09016394 77.81967211 2 80 C1.34 80 0.68 80 0 80 C-9.3534976 58.15052536 -13.81289525 34.00362754 -5 11 C-3.46033485 7.2620594 -1.82883729 3.60520793 0 0 Z " fill="#2A7DC7" transform="translate(212,56)"/>
<path d="M0 0 C3.56198231 2.16816315 5.47170651 4.15593032 7 8 C7.22705078 10.65722656 7.22705078 10.65722656 7.1953125 13.640625 C7.18886719 14.71054688 7.18242187 15.78046875 7.17578125 16.8828125 C7.15902344 17.99398437 7.14226562 19.10515625 7.125 20.25 C7.11597656 21.37664062 7.10695313 22.50328125 7.09765625 23.6640625 C7.07410763 26.44279922 7.03823725 29.22142659 7 32 C-0.26 32 -7.52 32 -15 32 C-15.1081605 28.12424892 -15.1874032 24.25153041 -15.25 20.375 C-15.28351563 19.28058594 -15.31703125 18.18617188 -15.3515625 17.05859375 C-15.42833527 10.72484062 -15.38391751 6.74661572 -11 2 C-7.3078813 -0.46141247 -4.28645195 -0.68650207 0 0 Z " fill="#E73E34" transform="translate(420,224)"/>
<path d="M0 0 C15.26785714 -0.66964286 15.26785714 -0.66964286 18.875 2 C21.49037153 5.69228921 22.54915198 8.4739248 22 13 C20.03190926 16.79560358 18.5566917 18.6288722 15 21 C12.3886146 21.14269866 9.91622711 21.18772704 7.3125 21.125 C4.899375 21.08375 2.48625 21.0425 0 21 C0 14.07 0 7.14 0 0 Z " fill="#F6CB3E" transform="translate(245,427)"/>
<path d="M0 0 C3.5578125 -0.12375 3.5578125 -0.12375 7.1875 -0.25 C7.92508545 -0.28641602 8.6626709 -0.32283203 9.42260742 -0.36035156 C13.02843058 -0.42073267 14.86671156 -0.08736402 17.90234375 1.90234375 C21.2 5.2 21.2 5.2 22 8 C21.80743088 13.29565084 20.69046589 16.19770181 17 20 C13.93618406 21.53190797 10.73034134 21.10243613 7.375 21.0625 C4.94125 21.041875 2.5075 21.02125 0 21 C0 14.07 0 7.14 0 0 Z " fill="#F7CB3F" transform="translate(245,384)"/>
</svg>
