<?xml version="1.0" encoding="UTF-8"?>
<svg version="1.1" xmlns="http://www.w3.org/2000/svg" width="256" height="256">
<path d="M0 0 C2.50675447 2.21809789 4.95557915 4.48488348 7.390625 6.78125 C8.06738281 7.39355469 8.74414062 8.00585938 9.44140625 8.63671875 C29.89348878 27.85921716 40.60830281 55.91087736 44.265625 83.15625 C45.21741317 89.77809249 47.16811755 95.9234204 49.26953125 102.25 C54.04916728 117.3050208 52.69888628 134.88880296 45.8125 149.01953125 C39.33977001 160.72584247 31.27313827 169.0255559 19.140625 174.84375 C14.52678598 177.29257141 11.28606096 180.7463658 7.703125 184.46875 C-13.55168862 206.39696086 -43.09206989 219.36083947 -73.609375 220.78125 C-75.11951172 220.86052734 -75.11951172 220.86052734 -76.66015625 220.94140625 C-99.75187023 221.56550663 -121.49926711 215.85071779 -141.609375 204.78125 C-142.51042969 204.29914063 -143.41148437 203.81703125 -144.33984375 203.3203125 C-170.71106988 188.43541162 -192.00867517 161.76640444 -200.23486328 132.56054688 C-209.2750359 97.8190822 -205.81371529 61.99784761 -187.609375 30.78125 C-170.00103149 2.25814562 -142.32856938 -18.04551618 -109.73706055 -25.95336914 C-71.02726175 -34.65615387 -30.39010009 -25.84068391 0 0 Z " fill="#8C1BA4" transform="translate(204.609375,32.21875)"/>
<path d="M0 0 C1.07636719 -0.020625 2.15273438 -0.04125 3.26171875 -0.0625 C13.4609365 -0.1128044 13.4609365 -0.1128044 18.125 3.25 C18.76308594 4.1265625 19.40117188 5.003125 20.05859375 5.90625 C21.98697832 8.58409505 21.98697832 8.58409505 25.47265625 8.84375 C27.31150391 8.79734375 27.31150391 8.79734375 29.1875 8.75 C30.41597656 8.7396875 31.64445312 8.729375 32.91015625 8.71875 C36.10062533 8.61468134 36.10062533 8.61468134 37.4087677 6.74198914 C40.05410818 4.44228923 42.35025418 4.89057516 45.79956055 4.90942383 C46.472995 4.90898575 47.14642944 4.90854767 47.840271 4.90809631 C50.06438269 4.91018499 52.28773888 4.9335185 54.51171875 4.95703125 C56.05442391 4.96262695 57.5971344 4.96689717 59.1398468 4.96989441 C63.19897191 4.98134529 67.25777466 5.01081431 71.31677246 5.04400635 C75.45918415 5.07470213 79.60164797 5.08839868 83.74414062 5.10351562 C91.87124164 5.135684 99.99808071 5.18688302 108.125 5.25 C109.115 7.23 109.115 7.23 110.125 9.25 C115.075 9.25 120.025 9.25 125.125 9.25 C125.785 7.6 126.445 5.95 127.125 4.25 C131.73971827 -0.27926053 136.20224155 -0.29119045 142.50390625 -0.34570312 C143.65761719 -0.33474609 144.81132812 -0.32378906 146 -0.3125 C147.14597656 -0.33634766 148.29195312 -0.36019531 149.47265625 -0.38476562 C156.55887367 -0.37253395 161.82506755 0.29888146 167.125 5.25 C171.73745022 10.00834829 173.62738558 14.54308993 175.60546875 20.8125 C175.90439529 21.72201416 176.20332184 22.63152832 176.51130676 23.56860352 C177.45788262 26.45840046 178.38546297 29.35388329 179.3125 32.25 C179.94600968 34.19572187 180.58076343 36.14103915 181.21679688 38.0859375 C182.38296808 41.65771391 183.54200016 45.23162327 184.69213867 48.80859375 C186.28332385 53.75330218 187.92788728 58.6789792 189.59765625 63.59765625 C190.12765895 65.16925236 190.65760579 66.74086731 191.1875 68.3125 C191.45626953 69.10205078 191.72503906 69.89160156 192.00195312 70.70507812 C197.44488521 86.89814042 197.08627813 105.01757532 189.546875 120.48828125 C182.76757414 132.74904384 172.75238526 143.60679817 159.125 148.25 C154.95416575 149.01623281 151.79125545 148.54468991 147.875 146.8125 C141.25065897 140.63981858 139.72555225 130.7272205 137.5625 122.25 C135.80013452 115.43499913 134.04888106 108.67138334 131.703125 102.03027344 C130.90636325 99.57673176 130.63016224 97.79487989 131.125 95.25 C132.40562485 93.5425002 133.74267557 91.87626404 135.125 90.25 C138.09015796 84.0891771 138.38390077 77.15552006 136.28515625 70.64453125 C133.48682006 65.01959284 129.77244485 61.89650135 124.125 59.25 C117.98055299 57.201851 111.83230908 57.74151039 105.90625 60.28125 C100.11447728 63.43116148 97.50914066 68.37479624 95.125 74.25 C94.795 77.55 94.465 80.85 94.125 84.25 C79.605 84.25 65.085 84.25 50.125 84.25 C49.465 79.96 48.805 75.67 48.125 71.25 C44.94322064 64.88644127 39.89440127 60.51314303 33.125 58.25 C26.99589535 57.46210314 21.33940416 57.72529576 15.9140625 60.83984375 C11.78517973 64.09426881 8.78084681 68.28245956 7.125 73.25 C6.44205753 80.80715032 6.71792777 86.92503522 11.125 93.25 C11.89199219 93.89453125 12.65898438 94.5390625 13.44921875 95.203125 C15.87711211 99.61747657 14.56868903 102.41289213 13.24169922 107.12402344 C12.89381348 108.2587207 12.54592773 109.39341797 12.1875 110.5625 C11.84992676 111.72426758 11.51235352 112.88603516 11.16455078 114.08300781 C10.48469166 116.40777075 9.79377257 118.7293306 9.09130859 121.04736328 C8.26279247 123.79331439 7.47338195 126.54484566 6.70703125 129.30859375 C4.58068029 136.72723278 2.76243079 142.95892008 -3.8125 147.625 C-7.83812978 148.84488781 -11.05494901 148.57364957 -14.953125 147.03515625 C-30.75220321 138.4546224 -41.03099245 127.36615695 -46.875 110.25 C-48.61136305 104.33780608 -49.26846137 98.9632289 -49.3125 92.8125 C-49.34537109 92.03712891 -49.37824219 91.26175781 -49.41210938 90.46289062 C-49.48927214 81.63126175 -46.54096259 73.55514865 -43.875 65.25 C-43.23302029 63.21430747 -42.5917014 61.17840646 -41.95092773 59.14233398 C-40.16242142 53.48328388 -38.34230943 47.83495586 -36.50927734 42.19018555 C-35.74836819 39.84047318 -34.99223861 37.48920806 -34.24072266 35.13647461 C-33.13977322 31.69034553 -32.02462942 28.24910006 -30.90625 24.80859375 C-30.57588745 23.76577744 -30.2455249 22.72296112 -29.90515137 21.64854431 C-27.08645003 13.0697642 -24.18199032 5.66861187 -15.875 1.25 C-10.74199582 -0.37810141 -5.32895283 0.02534579 0 0 Z " fill="#342F36" transform="translate(60.875,60.75)"/>
<path d="M0 0 C33.2436296 -1.02683026 64.65838141 11.48019428 88.890625 33.95703125 C89.66019531 34.68277344 90.42976562 35.40851562 91.22265625 36.15625 C91.89941406 36.76855469 92.57617188 37.38085938 93.2734375 38.01171875 C114.51786106 57.97892246 126.5267444 88.50118778 128.22265625 117.15625 C126.22265625 116.15625 126.22265625 116.15625 125.28515625 113.39453125 C124.92613207 112.08726186 124.57248961 110.77850885 124.22265625 109.46875 C121.95051299 101.44594382 119.5064243 93.48007553 116.93481445 85.54867554 C116.50500459 84.21395924 116.081395 82.87722887 115.66430664 81.53848267 C112.84435045 72.50491344 110.31934938 65.9554618 102.66015625 60.24609375 C97.22629799 58.52331369 91.8866755 58.6842133 86.22265625 58.71875 C85.05992187 58.69876953 83.8971875 58.67878906 82.69921875 58.65820312 C74.12888292 58.64384136 74.12888292 58.64384136 67.22265625 63.15625 C65.83397109 65.25664331 65.83397109 65.25664331 65.22265625 67.15625 C62.7636697 67.23701963 60.30731883 67.29662143 57.84765625 67.34375 C57.14898437 67.36888672 56.4503125 67.39402344 55.73046875 67.41992188 C53.69921875 67.44921875 53.69921875 67.44921875 50.22265625 67.15625 C49.56265625 66.16625 48.90265625 65.17625 48.22265625 64.15625 C45.2535391 63.69483533 45.2535391 63.69483533 41.70922852 63.76806641 C41.04075897 63.76280945 40.37228943 63.75755249 39.68356323 63.75213623 C37.46849361 63.73890644 35.25413974 63.74768515 33.0390625 63.7578125 C31.50210939 63.75579236 29.96515722 63.75288143 28.4282074 63.74911499 C25.20424286 63.74468743 21.98052741 63.75113545 18.7565918 63.76513672 C14.62248394 63.78221477 10.48896092 63.77239933 6.35487461 63.75441933 C3.17986136 63.74358073 0.00498683 63.74702837 -3.17003059 63.7548027 C-4.69427624 63.75680526 -6.21853444 63.75434347 -7.74276543 63.74736404 C-9.87369013 63.73974959 -12.00366739 63.75135282 -14.13452148 63.76806641 C-15.34760483 63.77045319 -16.56068817 63.77283997 -17.81053162 63.77529907 C-21.10129649 64.19784687 -21.707486 64.72568843 -23.77734375 67.15625 C-28.76362287 67.94645885 -35.2936617 68.86606901 -39.6328125 65.87890625 C-40.77287051 64.36989743 -41.78076725 62.76363146 -42.77734375 61.15625 C-46.36185233 59.29432259 -49.33462227 58.90841167 -53.33984375 58.92578125 C-54.90605469 58.92868164 -54.90605469 58.92868164 -56.50390625 58.93164062 C-57.58414063 58.94388672 -58.664375 58.95613281 -59.77734375 58.96875 C-61.39769531 58.9697168 -61.39769531 58.9697168 -63.05078125 58.97070312 C-67.77948718 58.99697371 -72.15037875 59.10395136 -76.77734375 60.15625 C-76.55278617 55.47925773 -76.18596009 50.82004378 -75.77734375 46.15625 C-75.67993896 44.91222412 -75.67993896 44.91222412 -75.58056641 43.64306641 C-74.30241954 28.48305956 -74.30241954 28.48305956 -71.10546875 23.60546875 C-68.76914148 21.69512597 -66.49752652 20.46568971 -63.77734375 19.15625 C-62.11251953 18.18751953 -62.11251953 18.18751953 -60.4140625 17.19921875 C-41.71432393 6.39000496 -21.48143146 1.20851935 0 0 Z " fill="#B830D5" transform="translate(120.77734375,2.84375)"/>
<path d="M0 0 C0.66861557 -0.00686325 1.33723114 -0.0137265 2.02610779 -0.02079773 C4.23572028 -0.03909601 6.44462489 -0.03522469 8.65429688 -0.02954102 C10.18982169 -0.03410106 11.72534447 -0.0394061 13.26086426 -0.04542542 C16.47884412 -0.05436217 19.69657588 -0.05192675 22.91455078 -0.04199219 C27.04090314 -0.03049534 31.16640066 -0.05072111 35.29264069 -0.07990932 C38.4633733 -0.09824326 41.63389993 -0.09798467 44.80467224 -0.0922718 C46.32613831 -0.09211828 47.84761806 -0.09818861 49.36903381 -0.11056328 C51.49526845 -0.12542162 53.61990944 -0.11483763 55.74609375 -0.09765625 C57.56119446 -0.097407 57.56119446 -0.097407 59.41296387 -0.09715271 C62.37304688 0.40405273 62.37304688 0.40405273 64.26296997 2.19871521 C65.97634418 5.60259509 65.8006383 9.02170871 65.77148438 12.74780273 C65.77435455 13.55390991 65.77722473 14.36001709 65.78018188 15.19055176 C65.78221979 16.89177149 65.77670901 18.59301479 65.76416016 20.29418945 C65.74810186 22.89514664 65.7640173 25.49455001 65.78320312 28.09545898 C65.78122064 29.75041032 65.77737687 31.4053607 65.77148438 33.06030273 C65.77755707 33.83643921 65.78362976 34.61257568 65.78988647 35.41223145 C65.7505945 38.43524475 65.63516209 40.88332078 64.26296997 43.60939026 C61.50496037 46.22838378 59.50544165 45.90524548 55.74609375 45.90576172 C54.74317039 45.9138662 54.74317039 45.9138662 53.71998596 45.9221344 C51.51013909 45.93464061 49.30159039 45.91812019 47.09179688 45.90014648 C45.55627372 45.90030143 44.02075016 45.90178969 42.48522949 45.90455627 C39.2671581 45.9059411 36.04953196 45.89336889 32.83154297 45.87060547 C28.70528462 45.84222008 24.57976617 45.84495679 20.45345306 45.85769558 C17.28271152 45.86464857 14.11214119 45.85686793 10.94142151 45.84443855 C9.41997433 45.83992031 7.89850879 45.83959051 6.37705994 45.84350395 C4.25098967 45.84641258 2.12594118 45.82992797 0 45.80810547 C-1.21006714 45.80270248 -2.42013428 45.7972995 -3.66687012 45.79173279 C-6.62695312 45.40405273 -6.62695312 45.40405273 -8.51687622 44.12086487 C-10.52975219 41.00781038 -10.0517322 37.27771645 -10.02539062 33.68530273 C-10.02969589 32.4038739 -10.02969589 32.4038739 -10.03408813 31.09655762 C-10.03612893 29.29100888 -10.03059795 27.48543804 -10.01806641 25.67993164 C-10.00201256 22.91429262 -10.01791412 20.15011499 -10.03710938 17.38452148 C-10.03512695 15.630612 -10.03128327 13.87670344 -10.02539062 12.12280273 C-10.03146332 11.29462036 -10.03753601 10.46643799 -10.04379272 9.61315918 C-9.97421485 3.94111745 -9.97421485 3.94111745 -8.51687622 1.6872406 C-5.69579235 -0.22817099 -3.38672597 0.01512183 0 0 Z " fill="#2B282D" transform="translate(106.626953125,65.595947265625)"/>
<path d="M0 0 C5.27811704 3.0517508 9.06296684 7.71272782 12.1875 12.875 C13.07014301 16.99400073 12.75 21.28749176 12.75 25.5 C27.27 25.5 41.79 25.5 56.75 25.5 C56.75 22.2 56.75 18.9 56.75 15.5 C58.60365837 8.45796115 62.45705732 4.29620237 68.56640625 0.55859375 C74.20746884 -2.1761611 80.3805625 -2.58430019 86.34765625 -0.6640625 C92.51020486 2.10583114 96.41430165 5.6163697 99.75 11.5 C101.7809276 17.59278281 101.86355753 24.96251391 99.1875 30.875 C95.84627837 36.56218576 90.99665242 40.45479973 84.75 42.5 C77.77574052 43.42535566 71.74332535 43.01455323 65.73046875 39.203125 C62.25614986 36.21534781 59.79541804 32.58281483 57.75 28.5 C57.75 27.84 57.75 27.18 57.75 26.5 C42.57 26.5 27.39 26.5 11.75 26.5 C11.09 28.48 10.43 30.46 9.75 32.5 C6.65578285 37.57451613 2.26729465 40.49967326 -3.25 42.5 C-9.72820408 43.4874792 -15.77298797 43.20055707 -21.5 39.8359375 C-26.19292944 36.25338869 -29.41807906 32.12899343 -31.25 26.5 C-32.12109977 19.15642639 -31.84159328 12.51471868 -27.25 6.5 C-19.98423642 -1.21341726 -10.14782438 -4.4705815 0 0 Z " fill="#F03B97" transform="translate(98.25,119.5)"/>
<path d="M0 0 C6.44038383 -0.25403922 12.87947378 -0.428854 19.32373047 -0.54931641 C21.51432563 -0.59953712 23.70458667 -0.66773196 25.89404297 -0.75439453 C29.0473862 -0.87606234 32.1962969 -0.93246956 35.3515625 -0.9765625 C36.8144017 -1.05398178 36.8144017 -1.05398178 38.30679321 -1.13296509 C41.19164724 -1.13533223 43.30073214 -1.03207931 46 0 C48.02490805 2.39146837 49.33342837 4.70686087 50.6590271 7.54165649 C52.98486477 11.80550697 56.45432439 13.61683571 61 15 C68.96511404 16.17883688 75.0077063 14.78898141 82 11 C82.86799717 13.89232275 83.7196556 16.78784698 84.5625 19.6875 C84.80935547 20.50412109 85.05621094 21.32074219 85.31054688 22.16210938 C87.47053761 29.67644333 87.47053761 29.67644333 86 34 C51.96857318 40.28963664 17.90291355 34.26860904 -11 15 C-11 14.34 -11 13.68 -11 13 C-10.113125 12.484375 -9.22625 11.96875 -8.3125 11.4375 C-5.26296892 9.54768143 -3.95802798 7.50474471 -2.29296875 4.34765625 C-1.85879639 3.53433838 -1.42462402 2.72102051 -0.97729492 1.88305664 C-0.6547876 1.26164795 -0.33228027 0.64023926 0 0 Z " fill="#B82FD5" transform="translate(110,146)"/>
<path d="M0 0 C-0.06960937 1.485 -0.06960937 1.485 -0.140625 3 C-0.38422592 10.39984646 -0.58268905 16.80488331 4 23 C4.70962891 23.7329126 5.41925781 24.4658252 6.15039062 25.22094727 C8 28 8 28 7.81152344 30.9543457 C7.49731445 32.01741943 7.18310547 33.08049316 6.859375 34.17578125 C6.53066406 35.33271484 6.20195313 36.48964844 5.86328125 37.68164062 C5.49589844 38.87982422 5.12851563 40.07800781 4.75 41.3125 C4.39808594 42.53001953 4.04617187 43.74753906 3.68359375 45.00195312 C2.81109301 48.00854353 1.91602752 51.0064398 1 54 C-6.01962601 52.8534173 -9.5124302 48.28691817 -14 43 C-20.21162556 34.12961047 -26.5123318 23.153447 -25 12 C-22.91065817 8.04517439 -20.79644981 5.34179636 -17 3 C-13.8359375 2.3046875 -13.8359375 2.3046875 -10.375 1.875 C-6.91601205 1.43193862 -3.3361743 0 0 0 Z " fill="#453C49" transform="translate(68,131)"/>
<path d="M0 0 C3.51520834 2.3707219 5.79390381 5.02530762 7.6875 8.8125 C8.2847791 13.37147843 8.73211115 17.88660452 6.48828125 22.0234375 C3.2508709 25.88875867 0.2209608 28.40900854 -4.86328125 29.21875 C-9.90343198 29.38984423 -13.3882773 29.37918527 -17.375 26.0625 C-21.23813254 22.32215651 -22.63044824 18.86294145 -22.8125 13.5 C-22.73015469 8.36714212 -21.54859776 5.80129794 -18.015625 2.15234375 C-12.47606266 -2.2056147 -6.50949349 -2.33359201 0 0 Z " fill="#564B5B" transform="translate(96.3125,126.1875)"/>
<path d="M0 0 C4.15676951 1.43888176 7.3577149 3.53587689 10.08203125 7.0625 C12.0361728 11.18698599 11.7225098 15.58612196 11 20 C9.1875 23.5 9.1875 23.5 7 26 C6.484375 26.598125 5.96875 27.19625 5.4375 27.8125 C1.86805963 30.76116813 -2.80189536 30.44900812 -7.19921875 30.4140625 C-11.72490944 29.74499247 -14.20447822 27.49858713 -17 24 C-19.62560002 19.77620866 -19.68425776 14.84112366 -19 10 C-14.95636171 1.75719887 -8.84959312 -1.28923929 0 0 Z " fill="#574B5C" transform="translate(181,125)"/>
<path d="M0 0 C15.84 0 31.68 0 48 0 C47.34 5.28 46.68 10.56 46 16 C31.48 16 16.96 16 2 16 C1.34 10.72 0.68 5.44 0 0 Z " fill="#2B282D" transform="translate(109,129)"/>
<path d="M0 0 C4.53648325 3.21398305 7.5547929 7.3831287 9.3046875 12.6328125 C9.97453647 20.04507564 9.95088207 26.55076771 5.3046875 32.6328125 C1.98500368 36.15275566 -0.86068163 38.71041582 -5.6953125 39.6328125 C-5.6953125 38.9728125 -5.6953125 38.3128125 -5.6953125 37.6328125 C-6.3553125 37.6328125 -7.0153125 37.6328125 -7.6953125 37.6328125 C-7.3653125 36.6428125 -7.0353125 35.6528125 -6.6953125 34.6328125 C-6.0559375 34.4884375 -5.4165625 34.3440625 -4.7578125 34.1953125 C-2.56684497 33.84033697 -2.56684497 33.84033697 -1.5703125 31.9453125 C-1.2815625 31.1821875 -0.9928125 30.4190625 -0.6953125 29.6328125 C-0.1384375 28.364375 -0.1384375 28.364375 0.4296875 27.0703125 C1.77152352 21.79881387 2.79369875 15.74004672 0.359375 10.66015625 C-2.15797686 7.43826251 -4.74418662 5.53079565 -8.6953125 4.6328125 C-14.11864007 4.16996822 -18.59807181 4.54163683 -23.6953125 6.6328125 C-24.3553125 4.6528125 -25.0153125 2.6728125 -25.6953125 0.6328125 C-17.12289851 -4.84400755 -8.93501987 -4.87111675 0 0 Z " fill="#EE3A95" transform="translate(189.6953125,121.3671875)"/>
<path d="M0 0 C2.125 0.375 2.125 0.375 4 1 C4.75 3.125 4.75 3.125 5 6 C4.0409375 7.36125 4.0409375 7.36125 3.0625 8.75 C0.36948338 12.99354133 0.27888748 16.10171129 1 21 C2.668962 25.65552557 4.6188158 28.62685856 9 31 C13.97847131 31.6672951 18.39641479 31.73497655 23 29.625 C23.99 28.820625 23.99 28.820625 25 28 C25.99 27.34 26.98 26.68 28 26 C26.69699525 28.90670291 25.33885925 30.84824949 23 33 C22.443125 33.556875 21.88625 34.11375 21.3125 34.6875 C20.879375 35.120625 20.44625 35.55375 20 36 C20.66 36 21.32 36 22 36 C21.67 36.99 21.34 37.98 21 39 C13.91335345 39.53959238 8.111392 39.58939329 1.98046875 35.703125 C-1.49385014 32.71534781 -3.95458196 29.08281483 -6 25 C-6 24.34 -6 23.68 -6 23 C-21.18 23 -36.36 23 -52 23 C-51.505 21.515 -51.505 21.515 -51 20 C-51 20.66 -51 21.32 -51 22 C-36.48 22 -21.96 22 -7 22 C-7 18.7 -7 15.4 -7 12 C-5.9765625 8.90625 -5.9765625 8.90625 -4.625 6.5 C-4.18414062 5.6853125 -3.74328125 4.870625 -3.2890625 4.03125 C-2 2 -2 2 0 0 Z " fill="#CF2589" transform="translate(162,123)"/>
<path d="M0 0 C0.66 0.33 1.32 0.66 2 1 C1.67 1.33 1.34 1.66 1 2 C1.061875 3.0725 1.12375 4.145 1.1875 5.25 C1 9 1 9 -1 11.25 C-4.12056336 15.54077461 -3.75350405 19.86863743 -3 25 C-0.97771189 29.04457622 1.18411789 31.61677114 5 34 C10.02012109 34.84174236 15.22987146 34.99371042 19.5625 32.0625 C20.7690625 31.0415625 20.7690625 31.0415625 22 30 C22.66 29.67 23.32 29.34 24 29 C22.85282644 31.92007815 21.957099 33.03166502 19.375 34.9375 C18.59125 35.618125 17.8075 36.29875 17 37 C16.80182139 39.586241 16.80182139 39.586241 17 42 C9.51217209 42.44926967 3.16325575 42.70498542 -3 38 C-7.53441406 33.72874389 -10.58593548 29.49066021 -11.3359375 23.16796875 C-11.4222802 16.58002041 -11.117437 11.3396157 -7 6 C-4.79874476 3.80345837 -2.49667116 1.851464 0 0 Z " fill="#D72587" transform="translate(78,120)"/>
<path d="M0 0 C3.51520834 2.3707219 5.79390381 5.02530762 7.6875 8.8125 C8.2847791 13.37147843 8.73211115 17.88660452 6.48828125 22.0234375 C3.2508709 25.88875867 0.2209608 28.40900854 -4.86328125 29.21875 C-9.90343198 29.38984423 -13.3882773 29.37918527 -17.375 26.0625 C-21.23813254 22.32215651 -22.63044824 18.86294145 -22.8125 13.5 C-22.73015469 8.36714212 -21.54859776 5.80129794 -18.015625 2.15234375 C-12.47606266 -2.2056147 -6.50949349 -2.33359201 0 0 Z M-16.3125 4.8125 C-19.48975642 8.75668038 -19.83766147 11.823466 -19.3125 16.8125 C-17.99723862 20.61214399 -16.92793185 22.35825268 -13.6875 24.75 C-9.2742416 26.13935913 -5.74642105 26.16798968 -1.3125 24.8125 C2.97875697 21.4152549 4.39790111 18.96380607 5.125 13.5625 C4.5435227 8.57840888 2.31468402 6.13898483 -1.3125 2.8125 C-6.38814663 0.27467669 -12.0859508 1.31050209 -16.3125 4.8125 Z " fill="#322931" transform="translate(96.3125,126.1875)"/>
<path d="M0 0 C4.15676951 1.43888176 7.3577149 3.53587689 10.08203125 7.0625 C12.0361728 11.18698599 11.7225098 15.58612196 11 20 C9.1875 23.5 9.1875 23.5 7 26 C6.484375 26.598125 5.96875 27.19625 5.4375 27.8125 C1.86805963 30.76116813 -2.80189536 30.44900812 -7.19921875 30.4140625 C-11.72490944 29.74499247 -14.20447822 27.49858713 -17 24 C-19.62560002 19.77620866 -19.68425776 14.84112366 -19 10 C-14.95636171 1.75719887 -8.84959312 -1.28923929 0 0 Z M-15 9 C-16.53597454 12.07194908 -16.2265038 14.60244293 -16 18 C-14.72874932 21.4792124 -13.62433795 23.46485319 -10.8125 25.875 C-7.13433006 27.34626798 -3.87016464 27.68163369 0 27 C3.44246086 25.27876957 5.40418623 24.00205044 7.375 20.6875 C8.4169901 16.20694258 8.63572523 12.553995 6.875 8.25 C3.67784816 4.41341779 0.4223534 3.23274874 -4.4375 2.4375 C-9.23119566 3.19439931 -11.77215173 5.48036884 -15 9 Z " fill="#312931" transform="translate(181,125)"/>
<path d="M0 0 C1.30517578 0.00322266 2.61035156 0.00644531 3.95507812 0.00976562 C5.25638672 -0.00634766 6.55769531 -0.02246094 7.8984375 -0.0390625 C9.76532227 -0.0400293 9.76532227 -0.0400293 11.66992188 -0.04101562 C12.81452881 -0.04399658 13.95913574 -0.04697754 15.13842773 -0.05004883 C18.01757812 0.32226562 18.01757812 0.32226562 19.90258789 1.64575195 C21.57541295 4.16103326 21.21338495 6.38516325 21.01757812 9.32226562 C20.47029053 9.16000488 19.92300293 8.99774414 19.35913086 8.83056641 C16.69618793 8.25249872 14.27777152 8.19267938 11.55273438 8.18945312 C9.98168945 8.18751953 9.98168945 8.18751953 8.37890625 8.18554688 C7.29029297 8.18941406 6.20167969 8.19328125 5.08007812 8.19726562 C3.45295898 8.19146484 3.45295898 8.19146484 1.79296875 8.18554688 C0.74431641 8.18683594 -0.30433594 8.188125 -1.38476562 8.18945312 C-2.81550415 8.19114502 -2.81550415 8.19114502 -4.27514648 8.19287109 C-6.9403388 8.32025426 -9.38492336 8.72826517 -11.98242188 9.32226562 C-12.10742188 5.94726562 -12.10742188 5.94726562 -11.98242188 2.32226562 C-8.67560851 -0.98454774 -4.4981938 0.02565066 0 0 Z " fill="#0BC4F8" transform="translate(55.982421875,53.677734375)"/>
<path d="M0 0 C1.87171875 -0.00386719 1.87171875 -0.00386719 3.78125 -0.0078125 C5.74578125 0.00378906 5.74578125 0.00378906 7.75 0.015625 C9.0596875 0.00789063 10.369375 0.00015625 11.71875 -0.0078125 C12.9665625 -0.00523438 14.214375 -0.00265625 15.5 0 C16.64984375 0.00225586 17.7996875 0.00451172 18.984375 0.00683594 C21.75 0.265625 21.75 0.265625 23.75 2.265625 C24.01991906 4.95401885 23.83737357 7.55704436 23.75 10.265625 C23.05688721 9.93965332 22.36377441 9.61368164 21.6496582 9.27783203 C18.36349818 8.1307057 15.82991008 8.03737941 12.35546875 8.0703125 C11.15341797 8.07675781 9.95136719 8.08320312 8.71289062 8.08984375 C6.84407227 8.11498047 6.84407227 8.11498047 4.9375 8.140625 C3.67228516 8.14964844 2.40707031 8.15867187 1.10351562 8.16796875 C-2.01451564 8.19150106 -5.13216097 8.22437955 -8.25 8.265625 C-8.375 5.390625 -8.375 5.390625 -8.25 2.265625 C-5.49055395 -0.49382105 -3.85763302 0.00756823 0 0 Z " fill="#0AC6F9" transform="translate(201.25,53.734375)"/>
<path d="M0 0 C2.5 2.125 2.5 2.125 4 5 C4.08104732 8.97131876 3.4688579 10.47755834 0.8125 13.4375 C-2 15 -2 15 -5.125 14.9375 C-9.49189189 13.51351351 -9.49189189 13.51351351 -11 11 C-11.49573337 7.10495209 -11.58016848 4.90506283 -9.4375 1.5625 C-6.03280512 -0.61999672 -3.96569988 -0.63734462 0 0 Z " fill="#453D49" transform="translate(181,133)"/>
<path d="M0 0 C2.4375 1.5625 2.4375 1.5625 4 4 C4.5625 7.5 4.5625 7.5 4 11 C1.875 13.5 1.875 13.5 -1 15 C-4.15548924 14.93689022 -6.13769198 14.48864121 -8.875 12.9375 C-10.71730752 9.76463704 -10.52772961 6.56774951 -10 3 C-7.83165681 -1.08158719 -4.19361486 -0.51500533 0 0 Z " fill="#453D49" transform="translate(92,133)"/>
<path d="M0 0 C17.82 0 35.64 0 54 0 C54 0.99 54 1.98 54 3 C36.18 3 18.36 3 0 3 C0 2.01 0 1.02 0 0 Z " fill="#57ADF4" transform="translate(107,76)"/>
<path d="M0 0 C2.4375 1.625 2.4375 1.625 4 4 C3.93498241 7.18586196 3.51914046 9.18030454 1.8125 11.875 C-0.97669273 13.60622307 -2.79146522 13.52384241 -6 13 C-8.4375 10.8125 -8.4375 10.8125 -10 8 C-9.93107581 5.10518392 -9.38861317 3.59314642 -7.8125 1.1875 C-5.06937448 -0.60972017 -3.20418874 -0.45774125 0 0 Z " fill="#57ADF4" transform="translate(203,96)"/>
<path d="M0 0 C3.5625 0.3125 3.5625 0.3125 5.5 1.375 C7.19585287 4.46743758 6.99310657 6.86764741 6.5625 10.3125 C4.48558202 12.69710953 3.15693084 13.2084746 0.0625 13.75 C-2.4375 13.3125 -2.4375 13.3125 -4.8125 11.75 C-6.4375 9.3125 -6.4375 9.3125 -6.3125 5.6875 C-5.14951423 1.20169775 -4.66151968 0.42377452 0 0 Z " fill="#B757B2" transform="translate(211.4375,107.6875)"/>
<path d="M0 0 C2.7912125 1.98322993 3.82597224 3.12986121 4.5 6.5 C3.82597224 9.87013879 2.7912125 11.01677007 0 13 C-3.17235276 13.45319325 -5.06487736 13.52990283 -7.875 11.9375 C-9.64273274 8.8930714 -9.36823916 6.4368988 -9 3 C-6.84532543 -0.71082843 -4.00794956 -0.57256422 0 0 Z " fill="#58AEF6" transform="translate(47,96)"/>
<path d="M0 0 C3.5625 0.3125 3.5625 0.3125 5.5 1.375 C7.19585287 4.46743758 6.99310657 6.86764741 6.5625 10.3125 C4.49424529 12.68716282 3.12821765 13.19935647 0.0625 13.8125 C-2.4375 13.3125 -2.4375 13.3125 -4.8125 11.1875 C-6.4375 8.3125 -6.4375 8.3125 -6.3125 5.125 C-5.03605468 1.02214003 -4.32440699 0.39312791 0 0 Z " fill="#B757B3" transform="translate(55.4375,107.6875)"/>
<path d="M0 0 C3.5625 0.3125 3.5625 0.3125 5.5 1.375 C7.19585287 4.46743758 6.99310657 6.86764741 6.5625 10.3125 C4.48558202 12.69710953 3.15693084 13.2084746 0.0625 13.75 C-2.4375 13.3125 -2.4375 13.3125 -4.8125 11.75 C-6.4375 9.3125 -6.4375 9.3125 -6.3125 5.6875 C-5.14951423 1.20169775 -4.66151968 0.42377452 0 0 Z " fill="#F03B96" transform="translate(223.4375,95.6875)"/>
<path d="M0 0 C1.875 1.0625 1.875 1.0625 3 3 C3.63316583 8.90954774 3.63316583 8.90954774 1.875 11.9375 C-0.93512264 13.52990283 -2.82764724 13.45319325 -6 13 C-8.4375 11.4375 -8.4375 11.4375 -10 9 C-9.9375 5.375 -9.9375 5.375 -9 2 C-5.53076119 -0.31282587 -4.07794425 -0.42478586 0 0 Z " fill="#F7BD06" transform="translate(215,84)"/>
<path d="M0 0 C3.5625 0.3125 3.5625 0.3125 5.5 1.375 C7.19585287 4.46743758 6.99310657 6.86764741 6.5625 10.3125 C4.49424529 12.68716282 3.12821765 13.19935647 0.0625 13.8125 C-2.4375 13.3125 -2.4375 13.3125 -4.8125 11.1875 C-6.4375 8.3125 -6.4375 8.3125 -6.3125 5.125 C-5.03605468 1.02214003 -4.32440699 0.39312791 0 0 Z " fill="#F03B96" transform="translate(67.4375,95.6875)"/>
<path d="M0 0 C1.875 1.0625 1.875 1.0625 3 3 C3.63316583 8.90954774 3.63316583 8.90954774 1.875 11.9375 C-0.93512264 13.52990283 -2.82764724 13.45319325 -6 13 C-8.7912125 11.01677007 -9.82597224 9.87013879 -10.5 6.5 C-9.33037707 0.65188536 -5.56964553 -0.82952167 0 0 Z " fill="#F8BE06" transform="translate(59,84)"/>
<path d="M0 0 C2.375 0.75 2.375 0.75 3.375 1.75 C3.50014928 3.72619447 3.5507276 5.70738173 3.5625 7.6875 C3.57667969 8.76902344 3.59085938 9.85054687 3.60546875 10.96484375 C3.375 13.75 3.375 13.75 1.375 15.75 C-1.92214793 15.42028521 -3.2476839 15.1273161 -5.625 12.75 C-5.92578125 10.47265625 -5.92578125 10.47265625 -5.9375 7.8125 C-5.95425781 6.93722656 -5.97101563 6.06195313 -5.98828125 5.16015625 C-5.625 2.75 -5.625 2.75 -4.26953125 0.91796875 C-2.625 -0.25 -2.625 -0.25 0 0 Z " fill="#2C292E" transform="translate(87.625,75.25)"/>
<path d="M0 0 C3.0625 0.1875 3.0625 0.1875 5.0625 2.1875 C5.36328125 4.46484375 5.36328125 4.46484375 5.375 7.125 C5.39175781 8.00027344 5.40851563 8.87554687 5.42578125 9.77734375 C5.0625 12.1875 5.0625 12.1875 3.70703125 14.01953125 C2.0625 15.1875 2.0625 15.1875 -0.5625 14.9375 C-2.9375 14.1875 -2.9375 14.1875 -3.9375 13.1875 C-4.03623816 11.18950428 -4.06721799 9.18792842 -4.0625 7.1875 C-4.06507813 6.094375 -4.06765625 5.00125 -4.0703125 3.875 C-3.88461688 0.11739445 -3.78633156 0.24168074 0 0 Z " fill="#2C282E" transform="translate(180.9375,74.8125)"/>
<path d="M0 0 C2 1 2 1 2.75 3 C3.10182866 7.22194394 2.07220472 10.93271102 1 15 C0.67 15 0.34 15 0 15 C0 10.05 0 5.1 0 0 Z " fill="#38333B" transform="translate(250,127)"/>
</svg>
