<?xml version="1.0" encoding="UTF-8"?>
<svg version="1.1" xmlns="http://www.w3.org/2000/svg" width="512" height="512">
<path d="M0 0 C0.77950994 -0.00465992 1.55901987 -0.00931984 2.36215132 -0.01412097 C4.965938 -0.02604177 7.56920005 -0.01668693 10.1729908 -0.00736332 C12.0619301 -0.01153751 13.9508669 -0.0170155 15.83979905 -0.02368313 C21.02438893 -0.03814522 26.20881994 -0.03389058 31.39341855 -0.02651632 C36.98726538 -0.02178886 42.58107763 -0.03429078 48.17491341 -0.04453373 C59.13141369 -0.0617354 70.08785666 -0.06255888 81.04436694 -0.05732083 C89.94951275 -0.05328039 98.85464161 -0.05472118 107.75978661 -0.06006908 C109.66050306 -0.06119172 109.66050306 -0.06119172 111.59961782 -0.06233703 C114.17377424 -0.0638685 116.74793065 -0.06540685 119.32208706 -0.066952 C136.60708722 -0.07678169 153.89207748 -0.08094353 171.17707825 -0.07332611 C172.19073278 -0.07288035 172.19073278 -0.07288035 173.22486518 -0.07242559 C178.71242521 -0.0699767 184.19998517 -0.06736509 189.68754513 -0.06474145 C211.09077402 -0.05463981 232.49392446 -0.06299338 253.89714241 -0.086236 C277.95083449 -0.11231469 302.00446781 -0.12510536 326.05817902 -0.11804825 C338.79157199 -0.11455382 351.52490054 -0.1168029 364.25828362 -0.13429928 C375.09811005 -0.14900899 385.93782669 -0.14967275 396.77765094 -0.13222837 C402.30799186 -0.12370587 407.83813655 -0.12159947 413.36846733 -0.13687992 C418.4327908 -0.15069953 423.49674941 -0.14599875 428.56105162 -0.12664068 C430.39139446 -0.12287201 432.22176633 -0.12582757 434.05208336 -0.13625234 C447.03767442 -0.20494371 458.13074052 0.9141136 467.89079475 10.38031673 C476.58723426 21.00929835 477.35650963 31.04708608 477.3243885 44.20844173 C477.32895468 45.8465258 477.33426155 47.48460794 477.3402729 49.12268734 C477.3491737 52.54197677 477.34681263 55.9610322 477.33683968 59.38031673 C477.32530706 63.76087417 477.34564169 68.14063061 477.37475681 72.52108288 C477.39309395 75.89772308 477.39283218 79.27416995 477.38711929 82.65084743 C477.38696602 84.26638323 477.39301526 85.88193207 477.40541077 87.49742031 C477.42028652 89.75219535 477.40967399 92.00547153 477.39250374 94.26019955 C477.39225449 96.1825845 477.39225449 96.1825845 477.3920002 98.1438055 C476.89079475 101.38031673 476.89079475 101.38031673 475.04693794 103.82532406 C472.89079475 105.38031673 472.89079475 105.38031673 469.89079475 105.38031673 C469.89079475 111.65031673 469.89079475 117.92031673 469.89079475 124.38031673 C471.54079475 124.71031673 473.19079475 125.04031673 474.89079475 125.38031673 C477.36017123 129.08438145 477.17580418 131.90510454 477.15822029 136.19063473 C477.1627514 136.99468571 477.16728252 137.7987367 477.17195094 138.62715286 C477.18464618 141.33082067 477.18297125 144.03428836 477.1813221 146.73798275 C477.18730439 148.67291684 477.19410924 150.60784853 477.20167732 152.54277706 C477.21938085 157.80757846 477.2240347 163.07231489 477.2253089 168.33714318 C477.22720656 172.73290379 477.23456306 177.12864922 477.24165308 181.52440399 C477.25795325 191.9002922 477.26282078 202.2761457 477.26140022 212.65204525 C477.26020021 223.34756638 477.28127032 234.04288525 477.31288755 244.73835522 C477.33906963 253.92321901 477.34976662 263.10801686 477.3484894 272.29291767 C477.34798009 277.77732374 477.3536459 283.26155037 477.3748455 288.74591923 C477.3942588 293.90960335 477.39433108 299.07293754 477.37981224 304.23663425 C477.37772648 306.12719644 477.38241112 308.01778069 477.39453316 309.90830517 C477.47733368 323.72182076 476.46550425 333.65363261 466.535326 344.11078548 C459.8637289 349.83633632 451.82618377 353.4236122 443.03044319 353.585639 C442.06974922 353.60558422 441.10905525 353.62552944 440.11924934 353.64607906 C438.57530495 353.6711478 438.57530495 353.6711478 437.00016975 353.69672298 C435.94041939 353.71750408 434.88066902 353.73828518 433.78880501 353.75969601 C430.40620037 353.82503859 427.02351864 353.88400554 423.64079475 353.94281673 C421.34651597 353.98601648 419.05224497 354.02963124 416.75798225 354.07367611 C411.13566773 354.18070434 405.51327665 354.28249912 399.89079475 354.38031673 C400.11546425 354.89336864 400.34013374 355.40642056 400.5716114 355.93501949 C404.77445713 365.58232282 408.83243593 375.04642238 411.26579475 385.31781673 C411.50709114 386.29162289 411.74838753 387.26542904 411.99699593 388.26874447 C414.76219538 399.6232675 416.32139811 410.70074171 416.89079475 422.38031673 C416.95460335 423.58881283 416.95460335 423.58881283 417.019701 424.82172298 C417.67728808 450.02922747 410.9582951 475.50424364 394.660326 495.05609798 C385.66380863 504.53030654 372.58059143 512.21012382 359.25016975 512.65375423 C334.35066251 513.29724473 317.04261093 504.9622461 298.89079475 488.38031673 C298.1637635 487.73578548 297.43673225 487.09125423 296.68766975 486.42719173 C289.94729345 480.12521389 283.02935782 471.65744286 278.89079475 463.38031673 C278.3081385 463.45250423 277.72548225 463.52469173 277.12516975 463.59906673 C262.43434715 465.26217873 248.47339479 465.08623542 235.89079475 456.38031673 C234.17160612 454.9768433 232.46357051 453.55961891 230.76579475 452.13031673 C226.82992063 448.90728669 224.17458196 447.07548286 218.89079475 447.38031673 C214.86587958 448.75050062 212.25948459 450.910327 209.20329475 453.75531673 C198.9437791 463.01629175 186.21387339 464.98356092 172.89079475 464.38031673 C169.54655498 464.12239497 166.21940374 463.79271077 162.89079475 463.38031673 C162.36872444 464.17953548 161.84665413 464.97875423 161.3087635 465.80219173 C147.17911866 487.03902186 127.63179288 505.87267762 102.14421272 511.98114681 C90.33454483 514.07310857 76.73888483 513.62327283 65.89079475 508.38031673 C65.11091194 508.02969173 64.33102913 507.67906673 63.5275135 507.31781673 C46.80076024 498.99777366 36.95537961 482.76635812 30.566576 465.88031673 C18.92199882 429.86437539 25.17861641 387.80467341 41.89079475 354.38031673 C41.31387383 354.3766711 40.7369529 354.37302547 40.14254951 354.36926937 C34.09037938 354.32717508 28.03894872 354.2576446 21.9872303 354.1727972 C19.73437617 354.14472325 17.48142603 354.12344182 15.22844124 354.10932064 C11.97347013 354.0877025 8.71963711 354.04095573 5.4650135 353.98969173 C4.47184624 353.9884631 3.47867897 353.98723446 2.45541573 353.98596859 C-7.91274362 353.77304079 -17.49703833 350.72889851 -25.105299 343.47797298 C-33.60761329 334.60124485 -35.71282735 325.9843857 -35.61713982 313.89386654 C-35.62337978 312.67139579 -35.62961974 311.44892505 -35.63604879 310.18940973 C-35.64917673 306.82191966 -35.64454313 303.45533101 -35.63210392 300.08789706 C-35.62301373 296.44637196 -35.63704272 292.80492281 -35.64802361 289.16341305 C-35.66577129 282.03992423 -35.66198565 274.91660439 -35.65037304 267.79310906 C-35.64132418 262.00156181 -35.64012099 256.21006178 -35.64446831 250.41850948 C-35.64508124 249.5929186 -35.64569417 248.76732772 -35.64632568 247.91671893 C-35.64760463 246.23932857 -35.64890149 244.56193822 -35.65021604 242.88454789 C-35.66161085 227.17101684 -35.64852542 211.45757927 -35.62701458 195.74406356 C-35.60914459 182.27332121 -35.612249 168.80271675 -35.63068962 155.33197689 C-35.65211578 139.67307883 -35.66051232 124.0142626 -35.64824057 108.35535192 C-35.64696643 106.68427596 -35.64570894 105.01319998 -35.64446831 103.34212399 C-35.64385121 102.52001201 -35.6432341 101.69790004 -35.6425983 100.85087559 C-35.63915064 95.06907887 -35.64496114 89.28733426 -35.65438652 83.50554562 C-35.66562731 76.45544128 -35.6625229 69.405515 -35.64126354 62.35543096 C-35.63078095 58.76120006 -35.62658317 55.16726558 -35.63986015 51.57303715 C-35.65405653 47.67078097 -35.63705835 43.76900577 -35.61713982 39.86676693 C-35.6260627 38.739323 -35.63498559 37.61187907 -35.64417887 36.45027018 C-35.54116647 26.02874678 -32.46495689 16.96440657 -25.10920525 9.38031673 C-17.58892657 3.22736145 -9.74906447 -0.09239605 0 0 Z " fill="#000101" transform="translate(35.10920524597168,-0.38031673431396484)"/>
<path d="M0 0 C6.6 0 13.2 0 20 0 C20.99 1.98 21.98 3.96 23 6 C24.72364508 7.72364508 27.01899863 7.13253926 29.37048435 7.1386652 C30.54289631 7.14413964 31.71530828 7.14961409 32.92324787 7.15525442 C34.22769366 7.15623253 35.53213945 7.15721064 36.87611389 7.15821838 C38.26291134 7.16278004 39.6497074 7.16777947 41.03650182 7.17318195 C44.86516825 7.18681766 48.69382576 7.19419704 52.52251017 7.20060861 C56.64455952 7.20858881 60.76659016 7.22229472 64.8886261 7.23532104 C72.03626484 7.2571177 79.18390545 7.27525047 86.33156013 7.29092598 C96.66599107 7.31359565 107.0004013 7.34174244 117.33481472 7.37124526 C134.09990968 7.41895686 150.86501308 7.46221133 167.63012695 7.50268555 C183.92017271 7.54202235 200.21021091 7.58345562 216.50024414 7.62768555 C218.02066367 7.63180981 218.02066367 7.63180981 219.57179874 7.63601738 C227.49839347 7.65753532 235.42498787 7.67917523 243.35158217 7.70085371 C282.23437292 7.80716312 321.11718327 7.90282914 360 8 C360 94.46 360 180.92 360 270 C290 270 290 270 280 263 C264.18304989 253.52609415 249.12287132 251.23145978 231.109375 251.37109375 C229.146422 251.37026298 227.18346909 251.3677958 225.22052002 251.36378479 C221.1427269 251.36095016 217.06549026 251.37541345 212.98779297 251.40307617 C207.76222243 251.43742861 202.53762757 251.43102869 197.3120079 251.4124136 C193.27481926 251.40185998 189.23785863 251.41076194 185.20069122 251.42579842 C183.27257208 251.43097448 181.34442912 251.43050542 179.41631317 251.42425346 C176.73372203 251.41881033 174.05254685 251.43913637 171.37011719 251.46655273 C170.57741928 251.46002686 169.78472137 251.45350098 168.96800232 251.44677734 C165.44833885 251.50802408 163.36858474 251.73687661 160.46905518 253.80677795 C158.64841312 256.0625655 158.64841312 256.0625655 159.125 259.625 C159.70740714 263.04542055 159.70740714 263.04542055 162 265 C164.9366021 265.2459409 167.78562112 265.37375252 170.7265625 265.4140625 C171.58937836 265.43342865 172.45219421 265.4527948 173.34115601 265.4727478 C176.10233616 265.53262204 178.86355784 265.57895998 181.625 265.625 C183.49481005 265.66317259 185.36460238 265.70222389 187.234375 265.7421875 C191.82277309 265.83832992 196.41125351 265.92233166 201 266 C197.79869308 280.40588115 192.04320345 294.13119051 187 308 C161.92 308 136.84 308 111 308 C106.49219563 296.73048907 106.49219563 296.73048907 104.45703125 291.0390625 C103.80637695 289.21955078 103.80637695 289.21955078 103.14257812 287.36328125 C102.70365234 286.12964844 102.26472656 284.89601563 101.8125 283.625 C101.35754933 282.35542307 100.90247191 281.08589155 100.44726562 279.81640625 C99.80241211 278.00849609 99.80241211 278.00849609 99.14453125 276.1640625 C98.75628174 275.07561035 98.36803223 273.9871582 97.96801758 272.86572266 C97.19673334 270.58241008 96.5320942 268.34774586 96 266 C97.13542236 265.9906543 98.27084473 265.98130859 99.44067383 265.97167969 C103.65103473 265.9318243 107.86066145 265.86607871 112.07055664 265.79248047 C113.89305189 265.76424486 115.71567019 265.7430432 117.53833008 265.72900391 C120.15770583 265.7076096 122.77559815 265.66098021 125.39453125 265.609375 C126.21025101 265.60814636 127.02597076 265.60691772 127.8664093 265.60565186 C132.35507497 265.51477373 132.35507497 265.51477373 136.04174805 263.18847656 C137.51811178 259.81672509 136.9671128 257.48160609 136 254 C132.44076978 251.2622653 128.15959982 251.70441296 123.87353516 251.70947266 C123.05663208 251.70275543 122.239729 251.69603821 121.39807129 251.68911743 C118.69500644 251.67011188 115.99219005 251.66621054 113.2890625 251.6640625 C111.40017598 251.65763129 109.51129046 251.65090269 107.62240601 251.64389038 C103.65628761 251.63190763 99.69025632 251.62821008 95.72412109 251.62939453 C90.67638377 251.62959662 85.62921647 251.60241383 80.58161354 251.56785011 C76.67444371 251.54544161 72.76740737 251.5415614 68.8601799 251.54261398 C67.00170319 251.54027436 65.14322186 251.53154475 63.28480911 251.51594925 C48.90996794 251.40671418 36.5656185 253.06270823 23.625 259.875 C22.99207031 260.18824219 22.35914063 260.50148438 21.70703125 260.82421875 C16.57766231 263.44636051 12.75232929 266.43575303 8 270 C-15.1 270 -38.2 270 -62 270 C-62 183.54 -62 97.08 -62 8 C-33.785 7.505 -33.785 7.505 -5 7 C-1.47639003 5.06008639 -1.47639003 5.06008639 0 0 Z " fill="#51DDFE" transform="translate(107,37)"/>
<path d="M0 0 C0.72680969 0.00141495 1.45361938 0.0028299 2.20245361 0.00428772 C4.51521994 0.00986833 6.82788812 0.02241721 9.140625 0.03515625 C10.71223818 0.04017376 12.28385289 0.04473623 13.85546875 0.04882812 C17.70055843 0.0598314 21.5455751 0.07708264 25.390625 0.09765625 C28.38368798 6.52914368 30.87275166 13.04375619 33.17578125 19.75 C33.87788281 21.76249975 34.58036772 23.77486579 35.28320312 25.78710938 C36.37586356 28.92829206 37.46529265 32.07049264 38.5480957 35.21508789 C39.602471 38.27161551 40.66939178 41.32352321 41.73828125 44.375 C42.06022964 45.32076401 42.38217804 46.26652802 42.71388245 47.24095154 C43.02107712 48.11268509 43.32827179 48.98441864 43.64477539 49.88256836 C43.91028702 50.65040146 44.17579865 51.41823456 44.44935608 52.20933533 C45.36611527 54.44040736 45.36611527 54.44040736 48.390625 56.09765625 C51.33489717 56.2927253 54.18430546 56.37055699 57.12890625 56.35644531 C58.46832779 56.36170227 58.46832779 56.36170227 59.83480835 56.36706543 C62.79099262 56.37587898 65.74693823 56.37003489 68.703125 56.36328125 C70.75431362 56.36462801 72.80550193 56.36656863 74.85668945 56.36907959 C79.15742021 56.37203034 83.45806795 56.36773474 87.75878906 56.35839844 C93.27717192 56.34700397 98.79536024 56.35356369 104.31373596 56.36554337 C108.54986034 56.37276325 112.78593845 56.37047343 117.02206421 56.36528778 C119.05707828 56.36395164 121.09209652 56.36559775 123.12710571 56.37024689 C125.96896528 56.37531419 128.81050785 56.36759894 131.65234375 56.35644531 C132.49711273 56.36049377 133.34188171 56.36454224 134.21224976 56.36871338 C138.12037396 56.34023333 140.0644916 56.31507851 143.390625 54.09765625 C144.55247159 51.74455862 144.55247159 51.74455862 145.4753418 48.91357422 C145.85550949 47.83260468 146.23567719 46.75163513 146.62736511 45.63790894 C147.02748306 44.46704742 147.42760101 43.29618591 147.83984375 42.08984375 C148.25732376 40.89408722 148.67480377 39.69833069 149.10493469 38.46633911 C150.21208442 35.28933232 151.31028287 32.10951322 152.40429688 28.92797852 C153.52318453 25.68117736 154.65367703 22.43842454 155.78320312 19.1953125 C157.99640862 12.83310965 160.19790383 6.466946 162.390625 0.09765625 C166.85223819 -0.00266542 171.31322067 -0.07448138 175.77563477 -0.12207031 C177.28747012 -0.14194812 178.7992311 -0.16906048 180.31079102 -0.20410156 C200.33082435 -0.65593106 216.43276793 5.58806371 231.390625 19.09765625 C232.14988281 19.77441406 232.90914063 20.45117188 233.69140625 21.1484375 C259.12387683 45.13536801 273.21813035 82.31231128 274.61328125 116.8125 C275.22103558 140.57852122 271.85307392 164.85198374 255.015625 182.97265625 C251.26398865 186.50410627 246.98502176 188.83018132 242.390625 191.09765625 C241.69324219 191.45988281 240.99585938 191.82210937 240.27734375 192.1953125 C231.19144646 196.54074164 219.53646221 194.39537902 210.47265625 191.27734375 C190.31978417 183.56357015 175.96838335 168.33815151 164.58203125 150.4453125 C162.68000822 147.5016161 160.77034882 144.68536406 158.390625 142.09765625 C154.34513922 141.48701689 152.0564148 141.76476135 148.390625 143.59765625 C141.29177589 146.94677468 131.40329279 146.19337477 124.140625 143.66015625 C119.10188268 141.33329518 115.17016882 137.72784151 110.96875 134.16015625 C104.68591844 129.133891 98.59355 128.47593108 90.63671875 128.6875 C83.59923616 129.5767126 78.50801064 132.92070129 73.390625 137.66015625 C65.73330112 144.63243128 57.98633873 145.69302594 47.81640625 145.4375 C43.66321926 145.02549627 41.08558178 143.94513464 37.390625 142.09765625 C33.76311116 141.4300684 33.76311116 141.4300684 30.390625 142.09765625 C27.45456803 145.33425449 25.16829199 148.91808482 22.828125 152.59765625 C11.18041413 170.11220304 -2.30081529 182.57540479 -21.609375 191.09765625 C-22.4653125 191.47792969 -23.32125 191.85820312 -24.203125 192.25 C-33.46179788 195.51157795 -44.36718123 195.48763944 -53.2734375 191.3515625 C-69.45912275 182.66325988 -77.1198897 169.4030259 -82.78515625 152.3046875 C-85.06990019 143.41475964 -85.97039234 134.89520524 -85.921875 125.72265625 C-85.91623535 124.59069824 -85.9105957 123.45874023 -85.90478516 122.29248047 C-85.39055342 86.04677999 -72.51081969 52.42538748 -48.609375 25.09765625 C-47.59810547 23.94136719 -47.59810547 23.94136719 -46.56640625 22.76171875 C-36.95768219 12.48597257 -25.00252746 5.25281899 -11.609375 1.09765625 C-11.05048584 0.91734863 -10.49159668 0.73704102 -9.91577148 0.55126953 C-6.61654345 -0.09761008 -3.34761634 -0.02464099 0 0 Z " fill="#ECF4FD" transform="translate(161.609375,302.90234375)"/>
<path d="M0 0 C0.76420967 -0.00265183 1.52841933 -0.00530365 2.31578687 -0.00803584 C4.89745347 -0.01574501 7.47907264 -0.01628863 10.06075001 -0.01688576 C11.92204833 -0.02089931 13.78334578 -0.02533735 15.64464217 -0.03016531 C20.77592995 -0.04214853 25.90720831 -0.0477833 31.03850734 -0.05234647 C36.56627291 -0.05829589 42.0940272 -0.06990732 47.62178516 -0.08063698 C60.97923173 -0.10517528 74.33668204 -0.11978979 87.69414422 -0.13269705 C91.46530405 -0.13640779 95.2364635 -0.14038112 99.00762296 -0.14444971 C122.41390942 -0.16968391 145.82019682 -0.1917584 169.22649384 -0.20417786 C174.64974629 -0.20709921 180.07299871 -0.21006673 185.49625111 -0.21308327 C186.17002527 -0.21345418 186.84379944 -0.21382509 187.537991 -0.21420723 C209.38488094 -0.22636359 231.23169033 -0.2573091 253.07854244 -0.29900479 C276.17254491 -0.34300038 299.26650943 -0.36871128 322.36055881 -0.37409842 C334.95091126 -0.37751556 347.54113664 -0.38930659 360.1314497 -0.42220116 C370.85214819 -0.45016473 381.57269356 -0.46121718 392.2934257 -0.4500057 C397.76480495 -0.44480973 403.23586334 -0.44776698 408.70719624 -0.47247124 C413.71553746 -0.49489657 418.72332609 -0.49427604 423.73167656 -0.47526737 C425.54397242 -0.47245794 427.35630523 -0.47811801 429.16854151 -0.4930803 C446.70548903 -0.62902254 446.70548903 -0.62902254 452.5941515 5.13701439 C456.80567569 9.30033062 459.3747085 13.35087629 459.84570789 19.3308773 C459.84696674 20.53348701 459.84822559 21.73609673 459.84952259 22.97514915 C459.85495327 23.97610115 459.85495327 23.97610115 459.86049366 24.9972744 C459.86736043 26.43880984 459.86989822 27.88037114 459.86854649 29.3219223 C459.86757792 31.6045346 459.88056043 33.88668033 459.89752674 36.16922569 C459.94371065 42.65609249 459.96841706 49.14290862 459.97501087 55.62993431 C459.98002363 59.60405553 460.00425468 63.5776849 460.04033756 67.55163956 C460.05013537 69.06386361 460.05246756 70.5761553 460.04716587 72.08840179 C460.04009957 74.20222873 460.05736307 76.31458616 460.07999134 78.42827415 C460.08284138 79.63008827 460.08569141 80.83190239 460.08862782 82.07013512 C460.69536171 85.75103017 461.6623547 86.90187581 464.5941515 89.13701439 C465.5841515 89.46701439 466.5741515 89.79701439 467.5941515 90.13701439 C467.5941515 96.40701439 467.5941515 102.67701439 467.5941515 109.13701439 C465.6141515 110.12701439 463.6341515 111.11701439 461.5941515 112.13701439 C460.07650354 115.17231029 460.45497052 118.32117783 460.46284962 121.65071678 C460.4607339 122.43490671 460.45861819 123.21909664 460.45643836 124.0270499 C460.45042045 126.66935006 460.4514398 129.31160271 460.45230579 131.95390892 C460.44927541 133.84267826 460.44575429 135.73144687 460.44177723 137.62021446 C460.43387736 141.69573231 460.42873917 145.77124137 460.42548656 149.84676552 C460.41958413 156.29289755 460.40305018 162.73897413 460.38414478 169.18507957 C460.37780699 171.39083859 460.37148138 173.59659764 460.36516762 175.80235672 C460.36200181 176.90720028 460.358836 178.01204383 460.35557425 179.1503675 C460.31348311 194.16185706 460.28053075 209.17332133 460.26822376 224.18486595 C460.25984233 234.30407456 460.23734627 244.42314651 460.1988681 254.54228675 C460.17910611 259.89807679 460.16670327 265.25366252 460.17170238 270.60949135 C460.17635042 275.6509029 460.16253466 280.69192754 460.13469028 285.73326111 C460.1277805 287.58110535 460.12764966 289.42898961 460.13489056 291.27683258 C460.1437964 293.8054831 460.12805791 296.33286253 460.1064043 298.86141014 C460.11484684 299.58769619 460.12328938 300.31398224 460.13198775 301.06227696 C460.02401874 307.91062116 457.61902164 313.06612447 452.8441515 317.94951439 C445.12397555 323.14578666 438.11726758 323.66499502 429.02774525 323.81670189 C427.23845348 323.84946724 427.23845348 323.84946724 425.41301441 323.88289452 C422.90099703 323.91985876 420.38883458 323.94791762 417.8766222 323.9675808 C414.03817293 324.01193903 410.20629028 324.1308657 406.36954212 324.25029564 C403.92232281 324.27706571 401.47504948 324.29935297 399.02774525 324.31670189 C397.88591282 324.36406487 396.74408039 324.41142784 395.56764698 324.46022606 C392.2345234 324.43277366 389.72638608 324.29050442 386.5941515 323.13701439 C384.18935556 320.51223637 382.60944874 317.95434041 380.98125172 314.79475975 C379.71271051 312.36417869 378.52885437 311.00719208 376.5941515 309.13701439 C376.5941515 308.47701439 376.5941515 307.81701439 376.5941515 307.13701439 C398.3741515 306.80701439 420.1541515 306.47701439 442.5941515 306.13701439 C443.41817914 302.84090382 443.72141457 300.57014212 443.72837257 297.25189781 C443.73505934 295.77017539 443.73505934 295.77017539 443.74188119 294.25851917 C443.74169683 293.1756516 443.74151247 292.09278402 443.74132252 290.97710228 C443.74683755 289.24886648 443.74683755 289.24886648 443.752464 287.48571682 C443.7615813 284.28722641 443.7661984 281.08876616 443.76885331 277.89026499 C443.77276044 274.44100239 443.78233818 270.99175459 443.79106617 267.54250145 C443.8108142 259.21482949 443.82089255 250.88715635 443.82979396 242.55946684 C443.83417769 238.63895495 443.83954411 234.7184444 443.84478283 230.79793358 C443.86178989 217.76897016 443.87628621 204.74000758 443.88353157 191.71103477 C443.88544148 188.33121807 443.88736181 184.95140138 443.88931751 181.5715847 C443.88980125 180.73154258 443.89028499 179.89150047 443.89078339 179.02600253 C443.89909191 165.40394589 443.92444497 151.78197684 443.95689819 138.15995848 C443.98993494 124.17929734 444.00797707 110.19868078 444.01117581 96.21798038 C444.01334355 88.36623957 444.02213109 80.51462664 444.04763699 72.66292381 C444.06929744 65.97960192 444.07741732 59.296439 444.0676702 52.61308599 C444.0631125 49.20188949 444.06509631 45.79102133 444.08443165 42.37986946 C444.10199492 38.68527394 444.09512066 34.99152098 444.08189869 31.2969265 C444.09286794 30.21405892 444.10383718 29.13119135 444.11513883 28.01550961 C444.10226749 26.53378718 444.10226749 26.53378718 444.08913612 25.02213097 C444.09060134 23.74268813 444.09060134 23.74268813 444.09209615 22.43739796 C443.39820238 19.23177696 442.21440426 18.07330003 439.5941515 16.13701439 C436.82960804 15.53975082 436.82960804 15.53975082 433.72514057 15.63364983 C432.5178717 15.62321884 431.31060283 15.61278785 430.06675005 15.60204077 C428.72533622 15.61068919 427.38392478 15.61971583 426.04251575 15.62907982 C424.61885168 15.62447221 423.19519236 15.61812024 421.77154303 15.61017084 C417.85463094 15.59343481 413.93810744 15.60174304 410.02119374 15.61411572 C405.79889876 15.62314652 401.57667173 15.6092063 397.35439014 15.59819603 C389.0810642 15.58038509 380.80788319 15.58426222 372.5345515 15.59584659 C365.81222363 15.60487054 359.08993645 15.60610943 352.36760426 15.60175133 C350.93390009 15.60083193 350.93390009 15.60083193 349.47123221 15.59989396 C347.52969625 15.59861509 345.58816031 15.59731824 343.64662439 15.59600359 C325.42961844 15.58459025 307.21269293 15.59772331 288.99570018 15.61920506 C273.35578819 15.63707672 257.71599494 15.63397283 242.07608509 15.61553001 C223.92543472 15.5941366 205.77485489 15.58568896 187.62419367 15.59797907 C185.68969537 15.5992533 183.75519706 15.60051078 181.82069874 15.60175133 C180.8688235 15.60236843 179.91694825 15.60298553 178.93622831 15.60362133 C172.21993637 15.60707883 165.50368908 15.6012373 158.78740406 15.59183311 C150.60538772 15.58062872 142.42352493 15.58362023 134.24152625 15.60495609 C130.06481734 15.61548761 125.88836468 15.61955278 121.71165752 15.60635948 C117.89092141 15.59447291 114.07067996 15.60093566 110.24998897 15.62226969 C108.86512554 15.62675172 107.48022064 15.62443369 106.0953837 15.61476654 C104.21800508 15.60266262 102.34050999 15.61742925 100.46316242 15.63364983 C98.89665101 15.63462394 98.89665101 15.63462394 97.29849291 15.63561773 C93.89894595 16.26590852 92.74052291 17.48704757 90.5941515 20.13701439 C90.2641515 20.79701439 89.9341515 21.45701439 89.5941515 22.13701439 C82.9941515 22.13701439 76.3941515 22.13701439 69.5941515 22.13701439 C69.2641515 22.79701439 68.9341515 23.45701439 68.5941515 24.13701439 C68.191964 22.43545189 68.191964 22.43545189 67.7816515 20.69951439 C67.193839 18.93607689 67.193839 18.93607689 66.5941515 17.13701439 C63.27371312 16.0302016 60.75688318 15.98986209 57.25845814 15.96001244 C55.95022587 15.9471772 54.6419936 15.93434196 53.29411793 15.92111778 C51.86418505 15.91295171 50.43424789 15.90550773 49.00430775 15.89873314 C48.28390245 15.89465761 47.56349716 15.89058208 46.82126141 15.88638306 C43.01061638 15.86554544 39.20000715 15.8512319 35.38931751 15.84184837 C31.45370248 15.83076843 27.51865045 15.79634458 23.58323479 15.75667667 C20.5557649 15.73054331 17.52843012 15.72215968 14.50085735 15.71856689 C13.04996836 15.713695 11.59908563 15.7020637 10.14830685 15.6835289 C8.11875601 15.65920455 6.08893093 15.66251565 4.05923939 15.66704369 C2.32741161 15.65824432 2.32741161 15.65824432 0.56059742 15.6492672 C-2.39645498 15.94194782 -2.39645498 15.94194782 -4.56076717 17.47000408 C-7.53758375 21.77290411 -6.94534722 26.18809307 -6.8935957 31.2969265 C-6.89771896 32.4490837 -6.90184223 33.6012409 -6.90609044 34.78831196 C-6.91348351 37.98702836 -6.90290088 41.18510852 -6.88477004 44.38376379 C-6.86956574 47.83302652 -6.87742629 51.28224553 -6.88245678 54.73152733 C-6.888687 61.48888964 -6.87368201 68.24604751 -6.85173116 75.00337052 C-6.8270594 82.86952868 -6.82412716 90.73564924 -6.8223274 98.60184038 C-6.81844941 112.63541962 -6.79597158 126.66890667 -6.76253796 140.70244408 C-6.73010868 154.32549486 -6.70885941 167.94849699 -6.70101452 181.5715847 C-6.70052903 182.41060495 -6.70004354 183.24962519 -6.69954333 184.1140703 C-6.69761469 187.48638213 -6.69570256 190.85869398 -6.69382723 194.23100585 C-6.68629609 207.20557992 -6.6706677 220.18014598 -6.65333063 233.15471023 C-6.64809336 237.0761934 -6.64316035 240.99767641 -6.63896871 244.91916084 C-6.63004938 253.16643612 -6.61827153 261.41368806 -6.59740267 269.66094279 C-6.58880332 273.07201698 -6.58171835 276.48307503 -6.57888699 279.89415932 C-6.57491634 283.58850228 -6.56480861 287.2827772 -6.55301952 290.97710228 C-6.55320389 292.05996985 -6.55338825 293.14283743 -6.5535782 294.25851917 C-6.54912035 295.24633412 -6.54466251 296.23414907 -6.54006958 297.25189781 C-6.53828101 298.1048597 -6.53649244 298.9578216 -6.53464967 299.83663082 C-6.46056556 302.45059147 -6.46056556 302.45059147 -5.4058485 306.13701439 C27.2641515 306.63201439 27.2641515 306.63201439 60.5941515 307.13701439 C53.601445 321.12242739 53.601445 321.12242739 47.64465809 323.13210106 C44.10157271 323.47642735 40.71028135 323.48005409 37.15274525 323.35185814 C35.87109989 323.34578041 34.58945454 323.33970268 33.26897144 323.33344078 C30.5667858 323.31814068 27.86865875 323.26695731 25.16763783 323.18657494 C21.72192129 323.08462524 18.27959402 323.04811516 14.83250809 323.03547382 C11.52208529 323.01959949 8.21279712 322.96715769 4.90274525 322.91435814 C3.6734177 322.90049568 2.44409016 322.88663322 1.17751026 322.87235069 C-6.47206885 322.6391788 -11.29629525 321.81398309 -17.11287975 316.60967064 C-20.83291721 311.8643225 -22.65345332 308.02569294 -22.66311741 301.98384953 C-22.6695663 300.96167637 -22.67601519 299.93950321 -22.68265951 298.8863551 C-22.6795623 297.77021936 -22.6764651 296.65408363 -22.67327404 295.5041256 C-22.67780515 294.31310071 -22.68233627 293.12207582 -22.68700469 291.89495927 C-22.69747596 288.59236919 -22.69897437 285.28999687 -22.69661593 281.98740566 C-22.69620774 278.42423752 -22.70724716 274.86110184 -22.71673107 271.29794884 C-22.73334159 264.31820711 -22.73884064 257.33849917 -22.73995583 250.35873934 C-22.74090629 244.68481812 -22.74501653 239.01090805 -22.75135708 233.33699036 C-22.76896978 217.24849245 -22.77819593 201.16002123 -22.77669613 185.07151362 C-22.77661622 184.20423971 -22.77653631 183.33696581 -22.77645397 182.44341087 C-22.77637221 181.57507735 -22.77629045 180.70674383 -22.77620621 179.81209717 C-22.77539334 165.74014547 -22.79453109 151.66830082 -22.82273071 137.59638008 C-22.85146095 123.14557694 -22.86527092 108.694826 -22.86354315 94.24399358 C-22.86287929 86.13169574 -22.86836989 78.01951012 -22.88989925 69.90723801 C-22.90811294 63.00006898 -22.91245693 56.09306303 -22.89888041 49.18588039 C-22.89235156 45.66280179 -22.89223006 42.14003604 -22.90958691 38.61698723 C-22.92822356 34.79479812 -22.91576075 30.97306548 -22.90032482 27.15085411 C-22.91061195 26.04141054 -22.92089907 24.93196697 -22.93149793 23.78890389 C-22.86478997 16.31858278 -21.83518526 10.60584446 -16.37069225 5.07842064 C-15.70166882 4.62338158 -15.03264538 4.16834251 -14.3433485 3.69951439 C-13.67174694 3.22642845 -13.00014538 2.75334251 -12.30819225 2.26592064 C-8.29066139 -0.11819932 -4.51633401 -0.00756585 0 0 Z " fill="#54565F" transform="translate(37.40584850311279,14.862985610961914)"/>
<path d="M0 0 C1.05445313 0.35191406 2.10890625 0.70382813 3.1953125 1.06640625 C17.60330428 6.22671536 30.46685509 14.29061323 39.93359375 26.4921875 C41.42663703 30.00330026 41.17091581 31.3245223 40 35 C37.5354766 38.16202538 34.68566713 40.89494176 31.80859375 43.6796875 C30.98875504 44.49245148 30.16891632 45.30521545 29.32423401 46.14260864 C26.70683458 48.73205322 24.07257794 51.30355969 21.4375 53.875 C19.6583657 55.62905328 17.88035672 57.38424876 16.10351562 59.140625 C11.7486411 63.44041522 7.37980186 67.72561169 3 72 C4.41129785 75.22437601 6.08696596 77.29807055 8.62353516 79.72363281 C9.36415192 80.43827698 10.10476868 81.15292114 10.86782837 81.88922119 C11.66683563 82.65280945 12.4658429 83.41639771 13.2890625 84.203125 C14.96963947 85.83893043 16.64929912 87.47567873 18.328125 89.11328125 C20.9770024 91.68792322 23.63121056 94.25593527 26.30175781 96.80810547 C28.87840098 99.27576244 31.42891134 101.76809291 33.9765625 104.265625 C34.77961823 105.02111633 35.58267395 105.77660767 36.4100647 106.55499268 C42.48337594 112.5699155 42.48337594 112.5699155 42.60473633 117.37792969 C41.91346719 121.51828858 40.98589081 123.04162845 38.0625 126 C37.23234375 126.84304687 36.4021875 127.68609375 35.546875 128.5546875 C34.70640625 129.36164063 33.8659375 130.16859375 33 131 C32.30390625 131.70382813 31.6078125 132.40765625 30.890625 133.1328125 C14.49532845 148.85010807 -6.31985083 153.5989272 -28.41796875 153.265625 C-46.44251131 152.64649608 -64.21186937 143.541017 -77 131 C-80.24152573 127.4904944 -83.18218149 123.85654376 -86 120 C-86.55429688 119.24460937 -87.10859375 118.48921875 -87.6796875 117.7109375 C-98.9156955 100.76959902 -101.55343349 78.16637787 -98.61767578 58.4296875 C-95.62941099 44.72128396 -88.20492373 32.4063696 -79 22 C-78.48179688 21.38769531 -77.96359375 20.77539062 -77.4296875 20.14453125 C-58.91435598 -0.18511668 -25.91615851 -8.93784414 0 0 Z " fill="#FDEF47" transform="translate(173,91)"/>
<path d="M0 0 C13.11760072 8.62320965 22.02879707 20.30771065 25.47387695 35.78222656 C26.0708528 39.0654893 26.62409096 42.34608794 27.12548828 45.64477539 C27.43685142 47.68325381 27.76975936 49.71735821 28.10546875 51.75195312 C31.26688819 71.40990284 31.26688819 71.40990284 27.92578125 77.41796875 C22.99061164 80.21000078 18.43590776 79.78330575 12.875 79.5625 C11.80056641 79.53994141 10.72613281 79.51738281 9.61914062 79.49414062 C6.9738315 79.43535598 4.33138587 79.35323957 1.6875 79.25 C1.86925781 80.49535522 1.86925781 80.49535522 2.0546875 81.76586914 C2.51037503 84.92391514 2.95640609 88.08315214 3.39648438 91.2434082 C3.67905852 93.25248194 3.97218085 95.26006326 4.265625 97.26757812 C8.10728556 125.05101613 8.10728556 125.05101613 0.14453125 136.4609375 C-5.81952193 143.80341029 -13.30549272 148.61592701 -22.828125 149.62109375 C-31.27664956 149.77132902 -37.29141412 149.08419028 -44.3125 144.25 C-44.96863281 143.80398437 -45.62476563 143.35796875 -46.30078125 142.8984375 C-52.48886573 138.15468109 -56.64499187 130.82958242 -58.3125 123.25 C-59.01412217 113.71346308 -57.32225712 104.43616654 -55.8125 95.0625 C-55.57084885 93.52290645 -55.32995789 91.98319338 -55.08984375 90.44335938 C-54.50613934 86.71080561 -53.91221147 82.98001392 -53.3125 79.25 C-54.01334717 79.27618408 -54.71419434 79.30236816 -55.4362793 79.3293457 C-58.6239565 79.4335354 -61.81127526 79.49839583 -65 79.5625 C-66.10279297 79.60439453 -67.20558594 79.64628906 -68.34179688 79.68945312 C-76.40388244 79.81123689 -76.40388244 79.81123689 -80.58203125 77.23046875 C-84.72116201 70.1014467 -81.57765893 59.89737944 -80.39599609 52.09667969 C-80.06461252 49.88907316 -79.7526303 47.67927659 -79.44140625 45.46875 C-78.29568863 37.64501902 -76.81231 30.41244348 -73.3125 23.25 C-72.86648438 22.321875 -72.42046875 21.39375 -71.9609375 20.4375 C-64.23793134 7.17098636 -53.26450723 -1.19467678 -38.50390625 -5.20703125 C-37.78074219 -5.38621094 -37.05757813 -5.56539063 -36.3125 -5.75 C-35.67957031 -5.93304688 -35.04664063 -6.11609375 -34.39453125 -6.3046875 C-22.70656166 -8.80455342 -10.24167798 -5.80256059 0 0 Z " fill="#020303" transform="translate(404.3125,94.75)"/>
<path d="M0 0 C1.05445313 0.35191406 2.10890625 0.70382813 3.1953125 1.06640625 C17.60330428 6.22671536 30.46685509 14.29061323 39.93359375 26.4921875 C41.42663703 30.00330026 41.17091581 31.3245223 40 35 C37.5354766 38.16202538 34.68566713 40.89494176 31.80859375 43.6796875 C30.98875504 44.49245148 30.16891632 45.30521545 29.32423401 46.14260864 C26.70683458 48.73205322 24.07257794 51.30355969 21.4375 53.875 C19.6583657 55.62905328 17.88035672 57.38424876 16.10351562 59.140625 C11.7486411 63.44041522 7.37980186 67.72561169 3 72 C4.41129785 75.22437601 6.08696596 77.29807055 8.62353516 79.72363281 C9.36415192 80.43827698 10.10476868 81.15292114 10.86782837 81.88922119 C11.66683563 82.65280945 12.4658429 83.41639771 13.2890625 84.203125 C14.96963947 85.83893043 16.64929912 87.47567873 18.328125 89.11328125 C20.9770024 91.68792322 23.63121056 94.25593527 26.30175781 96.80810547 C28.87840098 99.27576244 31.42891134 101.76809291 33.9765625 104.265625 C34.77961823 105.02111633 35.58267395 105.77660767 36.4100647 106.55499268 C42.48337594 112.5699155 42.48337594 112.5699155 42.60473633 117.37792969 C41.91346719 121.51828858 40.98589081 123.04162845 38.0625 126 C37.23234375 126.84304687 36.4021875 127.68609375 35.546875 128.5546875 C34.70640625 129.36164063 33.8659375 130.16859375 33 131 C32.30390625 131.70382813 31.6078125 132.40765625 30.890625 133.1328125 C14.49532845 148.85010807 -6.31985083 153.5989272 -28.41796875 153.265625 C-46.44251131 152.64649608 -64.21186937 143.541017 -77 131 C-80.24152573 127.4904944 -83.18218149 123.85654376 -86 120 C-86.55429688 119.24460937 -87.10859375 118.48921875 -87.6796875 117.7109375 C-98.9156955 100.76959902 -101.55343349 78.16637787 -98.61767578 58.4296875 C-95.62941099 44.72128396 -88.20492373 32.4063696 -79 22 C-78.48179688 21.38769531 -77.96359375 20.77539062 -77.4296875 20.14453125 C-58.91435598 -0.18511668 -25.91615851 -8.93784414 0 0 Z M-69.6875 33.75 C-79.7979691 45.91602546 -84.17658323 58.68268522 -84.1875 74.25 C-84.19974609 75.15363281 -84.21199219 76.05726563 -84.22460938 76.98828125 C-84.26212017 94.36828269 -76.99049363 108.54865879 -65.3125 121.1875 C-51.78223503 134.03335468 -35.89597752 138.82684523 -17.7265625 138.37109375 C-3.8058574 137.58707048 9.56521896 132.24749025 20 123 C20.90090672 121.96943827 21.78475929 120.92375725 22.65234375 119.86499023 C23.42707031 118.91954346 24.20179688 117.97409668 25 117 C24.49887695 116.51664185 23.99775391 116.03328369 23.48144531 115.53527832 C18.7522078 110.96663113 14.0426334 106.37871025 9.35394287 101.76844025 C6.94294056 99.39911194 4.52510914 97.03776276 2.08984375 94.69335938 C-0.7091906 91.99143438 -3.48152135 89.26443181 -6.25 86.53125 C-7.12495117 85.69758911 -7.99990234 84.86392822 -8.90136719 84.00500488 C-15.53842476 77.37295515 -15.53842476 77.37295515 -16.06640625 72.97265625 C-15.34645659 67.28554899 -10.6296478 63.65257045 -6.6875 59.90625 C-5.84405029 59.07411987 -5.00060059 58.24198975 -4.1315918 57.38464355 C-1.43928163 54.73703505 1.27951689 52.11862115 4 49.5 C5.83254734 47.70758616 7.66329947 45.91333496 9.4921875 44.1171875 C13.9741964 39.72327655 18.47826688 35.35300031 23 31 C10.99068746 18.86019198 -3.42681072 11.96669076 -20.5625 11.625 C-39.80793964 11.66358621 -56.57956088 19.67867114 -69.6875 33.75 Z " fill="#020302" transform="translate(173,91)"/>
<path d="M0 0 C7.92 0 15.84 0 24 0 C24 86.13 24 172.26 24 261 C16.08 261 8.16 261 0 261 C0 174.87 0 88.74 0 0 Z " fill="#54BAFF" transform="translate(443,46)"/>
<path d="M0 0 C15.67056314 -0.91819706 15.67056314 -0.91819706 21.421875 3.5078125 C26.24081126 8.06433144 29.7135021 12.3625055 30.2515564 19.19386292 C30.25281525 20.39647263 30.2540741 21.59908234 30.25537109 22.83813477 C30.25899155 23.5054361 30.262612 24.17273743 30.26634216 24.86026001 C30.27320894 26.30179546 30.27574672 27.74335675 30.27439499 29.18490791 C30.27342642 31.46752021 30.28640893 33.74966594 30.30337524 36.0322113 C30.34955915 42.5190781 30.37426556 49.00589423 30.38085938 55.49291992 C30.38587214 59.46704115 30.41010318 63.44067051 30.44618607 67.41462517 C30.45598388 68.92684922 30.45831606 70.43914091 30.45301437 71.95138741 C30.44594808 74.06521434 30.46321158 76.17757177 30.48583984 78.29125977 C30.48868988 79.49307388 30.49153992 80.694888 30.49447632 81.93312073 C31.10121022 85.61401578 32.0682032 86.76486142 35 89 C36.485 89.495 36.485 89.495 38 90 C38 96.27 38 102.54 38 109 C36.02 109.99 34.04 110.98 32 112 C30.48235205 115.0352959 30.86081903 118.18416344 30.86869812 121.51370239 C30.86658241 122.29789232 30.86446669 123.08208225 30.86228687 123.89003551 C30.85626896 126.53233567 30.8572883 129.17458832 30.8581543 131.81689453 C30.85512391 133.70566387 30.8516028 135.59443249 30.84762573 137.48320007 C30.83972586 141.55871792 30.83458767 145.63422698 30.83133507 149.70975113 C30.82543264 156.15588316 30.80889869 162.60195974 30.78999329 169.04806519 C30.7836555 171.2538242 30.77732988 173.45958325 30.77101612 175.66534233 C30.76785031 176.77018589 30.7646845 177.87502944 30.76142275 179.01335311 C30.71933161 194.02484267 30.68637926 209.03630694 30.67407227 224.04785156 C30.66569083 234.16706017 30.64319477 244.28613212 30.6047166 254.40527236 C30.58495461 259.76106241 30.57255178 265.11664813 30.57755089 270.47247696 C30.58219892 275.51388851 30.56838316 280.55491315 30.54053879 285.59624672 C30.533629 287.44409096 30.53349816 289.29197522 30.54073906 291.13981819 C30.5496449 293.66846871 30.53390641 296.19584814 30.51225281 298.72439575 C30.52491661 299.81382483 30.52491661 299.81382483 30.53783625 300.92526257 C30.42986724 307.77360678 28.02487014 312.92911008 23.25 317.8125 C15.52982405 323.00877227 8.52311608 323.52798063 -0.56640625 323.6796875 C-2.35569801 323.71245285 -2.35569801 323.71245285 -4.18113708 323.74588013 C-6.69315447 323.78284437 -9.20531691 323.81090323 -11.7175293 323.83056641 C-15.55597856 323.87492464 -19.38786121 323.99385131 -23.22460938 324.11328125 C-25.67182869 324.14005132 -28.11910201 324.16233858 -30.56640625 324.1796875 C-31.70823868 324.22705048 -32.85007111 324.27441345 -34.02650452 324.32321167 C-37.3596281 324.29575928 -39.86776541 324.15349003 -43 323 C-45.40479593 320.37522198 -46.98470276 317.81732602 -48.61289978 314.65774536 C-49.88144099 312.2271643 -51.06529713 310.87017769 -53 309 C-53 308.34 -53 307.68 -53 307 C-31.22 306.67 -9.44 306.34 13 306 C13.82402764 302.70388943 14.12726307 300.43312773 14.13422108 297.11488342 C14.14090784 295.633161 14.14090784 295.633161 14.14772969 294.12150478 C14.14754533 293.03863721 14.14736097 291.95576963 14.14717102 290.84008789 C14.15084771 289.68793069 14.1545244 288.53577349 14.1583125 287.34870243 C14.1674298 284.15021202 14.1720469 280.95175177 14.17470181 277.7532506 C14.17860894 274.303988 14.18818668 270.8547402 14.19691467 267.40548706 C14.2166627 259.0778151 14.22674106 250.75014196 14.23564246 242.42245245 C14.24002619 238.50194056 14.24539261 234.58143001 14.25063133 230.66091919 C14.26763839 217.63195577 14.28213471 204.6029932 14.28938007 191.57402039 C14.29128998 188.19420368 14.29321032 184.81438699 14.29516602 181.43457031 C14.29589163 180.17450714 14.29589163 180.17450714 14.2966319 178.88898814 C14.30494041 165.2669315 14.33029348 151.64496245 14.36274669 138.02294409 C14.39578345 124.04228295 14.41382557 110.06166639 14.41702431 96.080966 C14.41919205 88.22922518 14.42797959 80.37761225 14.45348549 72.52590942 C14.47514594 65.84258753 14.48326582 59.15942461 14.47351871 52.4760716 C14.468961 49.0648751 14.47094481 45.65400695 14.49028015 42.24285507 C14.50784342 38.54825955 14.50096917 34.85450659 14.48774719 31.15991211 C14.49871644 30.07704453 14.50968568 28.99417696 14.52098733 27.87849522 C14.56483174 22.26452942 14.56483174 22.26452942 12.1570158 17.36500549 C9.95824559 15.85270137 9.95824559 15.85270137 7 15 C5.9375 13.07421875 5.9375 13.07421875 5 10.6875 C3.64251224 7.39820274 2.23268011 4.79085014 0 2 C0 1.34 0 0.68 0 0 Z " fill="#35373E" transform="translate(467,15)"/>
<path d="M0 0 C6.6 0 13.2 0 20 0 C20.99 1.98 21.98 3.96 23 6 C25.10669459 8.10669459 29.71256289 7.25892489 32.62890625 7.31640625 C33.92525246 7.3475779 33.92525246 7.3475779 35.24778748 7.37937927 C38.01927445 7.44497114 40.79085921 7.50380418 43.5625 7.5625 C45.43685923 7.60567608 47.31120843 7.64929006 49.18554688 7.69335938 C53.79026336 7.80066227 58.39507858 7.90190215 63 8 C59.79869308 22.40588115 54.04320345 36.13119051 49 50 C23.92 50 -1.16 50 -27 50 C-31.50780437 38.73048907 -31.50780437 38.73048907 -33.54296875 33.0390625 C-33.97673828 31.82605469 -34.41050781 30.61304688 -34.85742188 29.36328125 C-35.51581055 27.51283203 -35.51581055 27.51283203 -36.1875 25.625 C-36.64245067 24.35542307 -37.09752809 23.08589155 -37.55273438 21.81640625 C-37.98263672 20.61113281 -38.41253906 19.40585937 -38.85546875 18.1640625 C-39.24371826 17.07561035 -39.63196777 15.9871582 -40.03198242 14.86572266 C-40.80326666 12.58241008 -41.4679058 10.34774586 -42 8 C-40.86457764 7.9906543 -39.72915527 7.98130859 -38.55932617 7.97167969 C-34.34896527 7.9318243 -30.13933855 7.86607871 -25.92944336 7.79248047 C-24.10694811 7.76424486 -22.28432981 7.7430432 -20.46166992 7.72900391 C-17.84229417 7.7076096 -15.22440185 7.66098021 -12.60546875 7.609375 C-11.78974899 7.60814636 -10.97402924 7.60691772 -10.1335907 7.60565186 C-5.64879703 7.53592586 -5.64879703 7.53592586 -2.0246582 5.14941406 C-0.89869962 2.90074152 -0.89869962 2.90074152 0 0 Z " fill="#A7B2B9" transform="translate(245,295)"/>
<path d="M0 0 C4.46161319 -0.10032167 8.92259567 -0.17213763 13.38500977 -0.21972656 C14.89684512 -0.23960437 16.4086061 -0.26671673 17.92016602 -0.30175781 C37.94019935 -0.75358731 54.04214293 5.49040746 69 19 C69.75925781 19.67675781 70.51851563 20.35351562 71.30078125 21.05078125 C96.73325183 45.03771176 110.82750535 82.21465503 112.22265625 116.71484375 C112.83041058 140.48086497 109.46244892 164.75432749 92.625 182.875 C88.87336365 186.40645002 84.59439676 188.73252507 80 191 C79.30261719 191.36222656 78.60523438 191.72445312 77.88671875 192.09765625 C71.82949789 194.99458797 64.54223004 194.09527519 58 194 C58 193.67 58 193.34 58 193 C59.03125 192.773125 60.0625 192.54625 61.125 192.3125 C70.33237773 189.59465959 75.16105949 181.02065613 79.63671875 173.10546875 C92.69404309 148.01040963 92.87901671 121.23011613 88 94 C87.86609863 93.25218262 87.73219727 92.50436523 87.59423828 91.73388672 C81.17147746 57.54922882 61.85618529 23.87078877 33 4 C29.44878292 1.78351158 26.41317737 1.69508361 22.265625 1.5859375 C20.97011719 1.54726563 19.67460937 1.50859375 18.33984375 1.46875 C16.97656716 1.43729733 15.61328582 1.40604993 14.25 1.375 C12.87106972 1.33679531 11.49216266 1.29774213 10.11328125 1.2578125 C6.74232282 1.16351996 3.37137022 1.0779178 0 1 C0 0.67 0 0.34 0 0 Z " fill="#D7E3EC" transform="translate(324,303)"/>
<path d="M0 0 C8.30860704 5.85411192 14.00947361 14.8461218 15.86010742 24.84204102 C16.29186965 27.55615548 16.67861299 30.27318924 17.05078125 32.99609375 C17.18484375 33.92035156 17.31890625 34.84460938 17.45703125 35.796875 C18.11401545 40.48291535 18.42578125 44.71615815 18.42578125 49.49609375 C-7.97421875 49.49609375 -34.37421875 49.49609375 -61.57421875 49.49609375 C-57.08769967 12.10843471 -57.08769967 12.10843471 -42.7265625 0.03515625 C-29.25039013 -9.60116301 -13.86658032 -8.10111293 0 0 Z " fill="#FD445B" transform="translate(399.57421875,109.50390625)"/>
<path d="M0 0 C5.30146589 3.81282963 9.70858872 9.06003764 11.15625 15.55078125 C12.18580794 24.27914471 11.35438004 31.32315459 6.15625 38.55078125 C1.39388983 43.89005441 -3.93639469 47.07903957 -11.046875 47.9375 C-19.50225492 48.34928798 -25.38413832 47.16731861 -31.84375 41.55078125 C-38.31774927 34.63169453 -40.38955086 28.34690379 -40.21875 18.91015625 C-39.45671892 12.08362778 -36.49972008 6.74677063 -31.46875 2.11328125 C-21.95040831 -5.06615169 -10.50641764 -6.05483484 0 0 Z " fill="#020303" transform="translate(314.84375,386.44921875)"/>
<path d="M0 0 C1.96798484 0.94838127 3.70501245 1.98001373 5.48828125 3.23828125 C6.39578125 3.85703125 7.30328125 4.47578125 8.23828125 5.11328125 C12.75226796 9.37649092 16.07148656 14.61703911 16.7890625 20.8515625 C16.82789677 29.79638926 15.00174914 36.37317558 9.328125 43.40625 C3.89885431 48.81246646 -2.02702716 50.55390339 -9.57421875 50.86328125 C-17.86943137 50.53003167 -23.28270502 47.91834975 -28.88671875 41.86328125 C-34.89118869 34.04079124 -35.49373761 26.99074446 -34.51171875 17.23828125 C-32.8049228 10.53991223 -28.0383541 6.12266019 -22.51171875 2.23828125 C-15.6530813 -1.81627238 -7.65042036 -2.32011193 0 0 Z " fill="#030303" transform="translate(220.51171875,383.76171875)"/>
<path d="M0 0 C11.28924596 3.35405134 20.05158855 8.32721316 29 16 C24.73519248 21.12840425 20.23523197 25.7992297 15.4140625 30.40234375 C13.97421708 31.80035854 12.53544578 33.19948029 11.09765625 34.59960938 C8.85547089 36.77996343 6.60822743 38.95345636 4.34228516 41.10913086 C2.13912165 43.20925161 -0.03743532 45.33409461 -2.2109375 47.46484375 C-2.89207611 48.10155502 -3.57321472 48.7382663 -4.2749939 49.39427185 C-7.45094835 52.55063817 -8.86233565 54.45069226 -9.97119141 58.87524414 C-9.39195087 64.85821179 -4.35763801 68.61745771 -0.25 72.53125 C0.6378418 73.40777222 1.52568359 74.28429443 2.44042969 75.18737793 C4.79390109 77.50372735 7.16356555 79.80164148 9.54248047 82.09179688 C11.9698827 84.4370659 14.37453545 86.80541387 16.78125 89.171875 C21.50022436 93.80273143 26.24129896 98.40999568 31 103 C30.05280968 104.12543912 29.10269847 105.24842038 28.15136719 106.37036133 C27.62258972 106.99598465 27.09381226 107.62160797 26.54901123 108.26618958 C21.10274943 114.36219798 12.91736688 119.0242901 5 121 C3.515 120.505 3.515 120.505 2 120 C2.47050781 119.49210937 2.94101563 118.98421875 3.42578125 118.4609375 C9.64709335 112.03697427 9.64709335 112.03697427 11.98583984 103.76318359 C10.47010169 99.51476249 7.45284579 97.04144593 4.2265625 93.9765625 C3.54701508 93.31216156 2.86746765 92.64776062 2.16732788 91.96322632 C-0.73502024 89.1261341 -3.66031962 86.31314053 -6.58398438 83.49804688 C-8.7179113 81.43671549 -10.83955743 79.36329174 -12.9609375 77.2890625 C-13.62040375 76.66278961 -14.27987 76.03651672 -14.95932007 75.39126587 C-19.65682171 70.79432917 -22.7439764 66.69139482 -23.21484375 59.90234375 C-23.12332031 58.92394531 -23.03179687 57.94554687 -22.9375 56.9375 C-22.82728516 55.46603516 -22.82728516 55.46603516 -22.71484375 53.96484375 C-21.14613608 47.4585644 -16.37031996 43.15621668 -11.66796875 38.71875 C-10.44524887 37.53589457 -9.22326473 36.3522782 -8.00195312 35.16796875 C-6.08899539 33.32330452 -4.17129056 31.48467064 -2.24047852 29.65869141 C-0.36707065 27.88193419 1.48357818 26.08390619 3.33203125 24.28125 C3.91523636 23.740448 4.49844147 23.199646 5.09931946 22.64245605 C6.92828275 20.91521478 6.92828275 20.91521478 9 18 C8.93177035 13.23331078 7.31849986 10.51570064 4.5 6.75 C1.02531646 2.05063291 1.02531646 2.05063291 0 0 Z " fill="#FBCC48" transform="translate(167,105)"/>
<path d="M0 0 C8.25 0 16.5 0 25 0 C25.57711076 4.19435859 26.14905582 8.38884183 26.70898438 12.58544922 C26.90015796 14.00738298 27.09408374 15.42894995 27.29101562 16.85009766 C30.82575278 42.40480453 30.82575278 42.40480453 26 49 C20.74986064 54.12413601 17.12750992 55.42516067 9.89453125 55.33984375 C4.64022954 54.72294193 1.06948101 52.36260864 -2.37890625 48.42578125 C-8.33630032 39.52082636 -4.02604146 26.32604383 -2.5 16.4375 C-2.25850993 14.84058611 -2.01761933 13.24358145 -1.77734375 11.64648438 C-1.19291045 7.76302586 -0.59620808 3.88174045 0 0 Z " fill="#ECF4FD" transform="translate(366,174)"/>
<path d="M0 0 C3.33733956 0.97365761 4.30609615 2.63019467 6.03515625 5.59375 C6.49907801 8.55318871 6.41530967 11.42023016 6.28515625 14.40625 C6.26710937 15.19451172 6.2490625 15.98277344 6.23046875 16.79492188 C6.18359673 18.72839261 6.11186035 20.66123285 6.03515625 22.59375 C7.78892578 22.52414062 7.78892578 22.52414062 9.578125 22.453125 C11.12627645 22.41559406 12.67445564 22.37919531 14.22265625 22.34375 C14.99158203 22.31023437 15.76050781 22.27671875 16.55273438 22.2421875 C20.54508994 22.17364921 22.55260263 22.3002122 26.046875 24.42578125 C28.03515625 26.59375 28.03515625 26.59375 28.66015625 29.53125 C27.80868957 33.70343671 26.39273466 34.99826786 23.03515625 37.59375 C20.06777222 38.18700989 17.23343041 38.0702905 14.22265625 37.90625 C13.43439453 37.88369141 12.64613281 37.86113281 11.83398438 37.83789062 C9.90021696 37.77929161 7.96743458 37.68961827 6.03515625 37.59375 C6.0815625 38.76292969 6.12796875 39.93210937 6.17578125 41.13671875 C6.21331219 42.6848702 6.24971094 44.23304939 6.28515625 45.78125 C6.31867188 46.55017578 6.3521875 47.31910156 6.38671875 48.11132812 C6.45446481 52.05753592 6.30860474 54.12567409 4.2734375 57.609375 C1.90647471 59.70783415 1.07358143 60.25782173 -2.02734375 60.15625 C-5.96484375 59.59375 -5.96484375 59.59375 -7.69921875 58.13671875 C-9.62590448 54.26550761 -9.28204202 50.6005138 -9.15234375 46.34375 C-9.13204102 45.08304687 -9.13204102 45.08304687 -9.11132812 43.796875 C-9.07607839 41.72889062 -9.02227395 39.66123729 -8.96484375 37.59375 C-10.20621094 37.65175781 -11.44757813 37.70976562 -12.7265625 37.76953125 C-14.36845189 37.81644238 -16.01038207 37.86194109 -17.65234375 37.90625 C-18.46896484 37.94814453 -19.28558594 37.99003906 -20.12695312 38.03320312 C-24.54201347 38.12257682 -26.39130352 38.0209938 -30.04296875 35.30078125 C-31.96484375 32.59375 -31.96484375 32.59375 -32.02734375 28.96875 C-30.96484375 25.59375 -30.96484375 25.59375 -29.4765625 23.89453125 C-25.63309448 21.90405714 -21.9709933 22.27657044 -17.71484375 22.40625 C-16.45414063 22.42655273 -16.45414063 22.42655273 -15.16796875 22.44726562 C-13.09998437 22.48251536 -11.03233104 22.5363198 -8.96484375 22.59375 C-8.9805542 22.03389404 -8.99626465 21.47403809 -9.01245117 20.8972168 C-9.07484223 18.3586641 -9.11384593 15.82027271 -9.15234375 13.28125 C-9.17748047 12.40017578 -9.20261719 11.51910156 -9.22851562 10.61132812 C-9.23818359 9.76376953 -9.24785156 8.91621094 -9.2578125 8.04296875 C-9.27352295 7.26268311 -9.2892334 6.48239746 -9.30541992 5.6784668 C-8.44526308 0.41332034 -4.75785211 0.22001628 0 0 Z " fill="#030303" transform="translate(153.96484375,332.40625)"/>
<path d="M0 0 C11.88965123 3.57800719 19.06344198 8.62343151 25.58984375 19.25390625 C28.7700746 25.44698738 29.69294109 31.68075265 30.625 38.5 C30.7590625 39.42425781 30.893125 40.34851563 31.03125 41.30078125 C31.6882342 45.9868216 32 50.2200644 32 55 C5.6 55 -20.8 55 -48 55 C-47.67 54.01 -47.34 53.02 -47 52 C-47 52.66 -47 53.32 -47 54 C-27.86 54 -8.72 54 11 54 C10.23913213 29.94553737 10.23913213 29.94553737 2.8125 7.3125 C0 2.1459854 0 2.1459854 0 0 Z " fill="#DE1D5B" transform="translate(386,104)"/>
<path d="M0 0 C12.21 0 24.42 0 37 0 C35.66783782 5.99472979 34.30057725 11.41714627 32.1796875 17.09765625 C31.91616486 17.8173912 31.65264221 18.53712616 31.38113403 19.27867126 C30.55108778 21.54195084 29.7132096 23.80223278 28.875 26.0625 C28.30546523 27.61113539 27.7364503 29.15996206 27.16796875 30.70898438 C25.78558285 34.47528066 24.39260603 38.23740849 23 42 C17.06 42 11.12 42 5 42 C7.3128913 32.86684222 10.3985614 24.12483085 13.6875 15.3125 C14.20420536 13.91747665 14.72048426 12.52229526 15.23632812 11.12695312 C16.48521448 7.74914654 17.74274178 4.37474575 19 1 C12.73 1 6.46 1 0 1 C0 0.67 0 0.34 0 0 Z " fill="#859096" transform="translate(271,303)"/>
<path d="M0 0 C19.47 0 38.94 0 59 0 C55.11498818 10.36003152 55.11498818 10.36003152 51 14 C47.88172622 14.91420606 44.8765361 14.98282462 41.640625 15.0078125 C40.73681091 15.0277829 39.83299683 15.0477533 38.90179443 15.06832886 C36.99233241 15.09864333 35.08255396 15.11278188 33.17285156 15.11181641 C30.26867179 15.12491578 27.37830797 15.23369787 24.4765625 15.34765625 C10.12065611 15.60433318 10.12065611 15.60433318 5.66601562 11.31933594 C2.97148452 8.09604827 0 4.32761165 0 0 Z " fill="#54565F" transform="translate(415,323)"/>
<path d="M0 0 C3.3 0 6.6 0 10 0 C10.57994629 4.19381376 11.14906703 8.38892586 11.70898438 12.58544922 C11.90015796 14.00738298 12.09408374 15.42894995 12.29101562 16.85009766 C15.82575278 42.40480453 15.82575278 42.40480453 11 49 C6.85020267 53.24411091 3.92228163 54.6446631 -2 55 C-1.67950684 54.21363159 -1.67950684 54.21363159 -1.35253906 53.41137695 C0.97119714 47.20412714 1.40117915 41.77410075 1.25 35.1875 C1.23356445 33.73174561 1.23356445 33.73174561 1.21679688 32.24658203 C1.12619006 26.36797219 0.82809561 20.54505057 0.22265625 14.6953125 C-0.18141127 9.80396881 -0.07825336 4.90387691 0 0 Z " fill="#D7E3EC" transform="translate(381,174)"/>
<path d="M0 0 C3.86134614 0.04843983 6.16579789 0.80078068 9.25 3.25 C11.72092491 6.95638736 11.80407837 9.95169504 11.25 14.25 C9.61312815 17.83552881 8.56027417 19.04315055 5.25 21.25 C2.18473649 21.79531842 -0.68408329 21.79325893 -3.75 21.25 C-6.50569447 19.06840855 -8.18588747 17.37822506 -9.75 14.25 C-10.25698467 9.09565588 -10.25698467 9.09565588 -9.75 6.25 C-7.3125 3.3125 -7.3125 3.3125 -4.75 1.25 C-3.75 0.25 -3.75 0.25 0 0 Z " fill="#35373E" transform="translate(299.75,397.75)"/>
<path d="M0 0 C3.02508145 1.73602105 5.41790069 3.83580137 7 7 C7.2262475 12.0069555 6.69507747 15.16929766 3.4375 19.0625 C-1.03699068 21.58448566 -2.93088294 21.72415958 -8 21 C-10.8100346 19.20636089 -12.50940468 17.98119065 -14 15 C-14.55512815 10.36786507 -14.6364242 7.01827873 -12.125 3 C-8.48407397 -0.42675391 -4.8582835 -0.82924319 0 0 Z " fill="#35373E" transform="translate(215,398)"/>
<path d="M0 0 C2.9375 2.0625 2.9375 2.0625 5 5 C5.06641554 8.85210127 4.87229157 10.99848005 2.3125 13.9375 C-0.73602877 15.33817538 -2.67926952 15.4842732 -6 15 C-8.375 13.4375 -8.375 13.4375 -10 11 C-10.56783945 7.02512383 -10.62340519 4.93510779 -8.375 1.5625 C-5.24316508 -0.49791771 -3.68455227 -0.6767545 0 0 Z " fill="#030A0C" transform="translate(300,158)"/>
<path d="M0 0 C1.9375 1.125 1.9375 1.125 3 3 C3.5 6.4375 3.5 6.4375 3 10 C0.9375 12.5 0.9375 12.5 -2 14 C-5.80284671 14 -8.01930006 13.7968187 -11 11.375 C-12.46981805 7.88418213 -11.98413921 5.60851044 -11 2 C-7.79952331 -1.93904824 -4.62362797 -1.17692348 0 0 Z " fill="#03090A" transform="translate(219,159)"/>
<path d="M0 0 C2 1.625 2 1.625 3 4 C2.93416738 7.75245951 2.81598805 10.06312483 0.3125 12.9375 C-2.76819895 14.35295627 -4.64720251 14.55879958 -8 14 C-10.4375 11.9375 -10.4375 11.9375 -12 9 C-12 5.19715329 -11.7968187 2.98069994 -9.375 0 C-5.88418213 -1.46981805 -3.60851044 -0.98413921 0 0 Z " fill="#020709" transform="translate(246,159)"/>
<path d="M0 0 C2.9375 2.0625 2.9375 2.0625 5 5 C5.06625411 8.8427383 4.81899419 10.99200716 2.375 14 C-1.11581787 15.46981805 -3.39148956 14.98413921 -7 14 C-9 12.375 -9 12.375 -10 10 C-9.87890756 6.54886548 -9.63213135 4.03137221 -7.8125 1.0625 C-4.99452602 -0.58941578 -3.20595185 -0.5129523 0 0 Z " fill="#090802" transform="translate(150,122)"/>
<path d="M0 0 C2.375 1.5625 2.375 1.5625 4 4 C4.56783945 7.97487617 4.62340519 10.06489221 2.375 13.4375 C-0.71685231 15.47161336 -2.36367425 15.60605429 -6 15 C-8.375 13.4375 -8.375 13.4375 -10 11 C-10.56783945 7.02512383 -10.62340519 4.93510779 -8.375 1.5625 C-5.28314769 -0.47161336 -3.63632575 -0.60605429 0 0 Z " fill="#070708" transform="translate(385,355)"/>
<path d="M0 0 C2.375 1.5625 2.375 1.5625 4 4 C4.56783945 7.97487617 4.62340519 10.06489221 2.375 13.4375 C-0.71685231 15.47161336 -2.36367425 15.60605429 -6 15 C-8.375 13.4375 -8.375 13.4375 -10 11 C-10.56783945 7.02512383 -10.62340519 4.93510779 -8.375 1.5625 C-5.28314769 -0.47161336 -3.63632575 -0.60605429 0 0 Z " fill="#070708" transform="translate(340,355)"/>
<path d="M0 0 C2.375 1.5625 2.375 1.5625 4 4 C4.56783945 7.97487617 4.62340519 10.06489221 2.375 13.4375 C-0.71685231 15.47161336 -2.36367425 15.60605429 -6 15 C-8.375 13.4375 -8.375 13.4375 -10 11 C-10.56783945 7.02512383 -10.62340519 4.93510779 -8.375 1.5625 C-5.28314769 -0.47161336 -3.63632575 -0.60605429 0 0 Z " fill="#020708" transform="translate(272,158)"/>
<path d="M0 0 C2.4375 1.625 2.4375 1.625 4 4 C4.60605429 7.63632575 4.47161336 9.28314769 2.4375 12.375 C-0.95870843 14.63913895 -3.00099302 14.64269755 -7 14 C-9.69500656 11.58140437 -10.80636871 9.99236035 -11.5 6.4375 C-10.19781462 0.08934627 -5.87567428 -0.83938204 0 0 Z " fill="#060707" transform="translate(363,378)"/>
<path d="M0 0 C2.4375 1.625 2.4375 1.625 4 4 C4.60605429 7.63632575 4.47161336 9.28314769 2.4375 12.375 C-0.95870843 14.63913895 -3.00099302 14.64269755 -7 14 C-9.69500656 11.58140437 -10.80636871 9.99236035 -11.5 6.4375 C-10.19781462 0.08934627 -5.87567428 -0.83938204 0 0 Z " fill="#060707" transform="translate(363,333)"/>
<path d="M0 0 C1.11375 0.1546875 1.11375 0.1546875 2.25 0.3125 C4.37452532 4.56155064 4.87940119 8.63303902 4.25 13.3125 C2.75 16.8125 2.75 16.8125 1.25 19.3125 C-1.59809926 19.00459738 -3.33286148 18.65771809 -5.5625 16.8125 C-7.37546303 12.99573572 -7.41383604 9.45778724 -6.75 5.3125 C-4.81860209 1.80737045 -4.03191017 0.45817161 0 0 Z " fill="#52545C" transform="translate(207.75,398.6875)"/>
<path d="M0 0 C2.41916008 5.4075343 2.21516535 10.30636236 1 16 C0.34 16.99 -0.32 17.98 -1 19 C-4.25677898 18.73593684 -5.61989153 18.43253722 -7.8125 15.9375 C-9.33985037 12.1593175 -9.8740858 9.01431997 -9 5 C-5.99057097 0.98742796 -5.10203966 0 0 0 Z " fill="#53555D" transform="translate(299,399)"/>
</svg>
