<?xml version="1.0" encoding="UTF-8"?>
<svg version="1.1" xmlns="http://www.w3.org/2000/svg" width="512" height="512">
<path d="M0 0 C0.76061811 -0.00175304 1.52123622 -0.00350607 2.30490336 -0.00531223 C4.85630324 -0.00996803 7.40764602 -0.00750781 9.95904827 -0.00507832 C11.8057234 -0.0069465 13.65239814 -0.00924723 15.49907225 -0.01194364 C20.57605021 -0.01806713 25.65301171 -0.0179274 30.72999251 -0.01674926 C36.20455055 -0.0165454 41.67910329 -0.02206267 47.15365887 -0.02680683 C57.88014299 -0.0351169 68.60662162 -0.03786183 79.3331087 -0.03841921 C88.05094881 -0.03889419 96.76878709 -0.04094804 105.48662663 -0.04411983 C126.17528079 -0.0514939 146.86393374 -0.05764456 167.55258942 -0.05712128 C168.21418775 -0.0571057 168.87578609 -0.05709012 169.55743285 -0.05707407 C172.91067031 -0.05699096 176.26390776 -0.05689192 179.61714522 -0.05678936 C180.28310737 -0.05676942 180.94906953 -0.05674947 181.63521236 -0.05672892 C182.98195004 -0.05668848 184.32868773 -0.05664669 185.67542542 -0.05660353 C206.62850907 -0.05599077 227.58157655 -0.06349747 248.53465557 -0.07717609 C272.07668198 -0.09253851 295.61870032 -0.10112956 319.16073245 -0.10021287 C331.62526858 -0.09988069 344.08978647 -0.10263713 356.55431843 -0.11339092 C367.16618841 -0.12248757 377.77803187 -0.12467804 388.38990406 -0.1178815 C393.80461677 -0.11461211 399.21927857 -0.11457474 404.63398647 -0.12323475 C409.59153222 -0.13108209 414.54898654 -0.12968637 419.50653001 -0.12095062 C421.2992315 -0.11941174 423.09193976 -0.12124636 424.88463328 -0.12681069 C439.34713129 -0.16872486 451.43888341 0.50621558 462.54027081 10.81613445 C471.08897191 19.79141745 472.77379018 29.67544341 472.55589581 41.6012907 C472.11184441 52.20845963 466.93718335 59.04769406 459.29027081 66.12863445 C451.01232806 72.4405658 442.90277499 74.2875589 432.58054161 74.25726891 C431.8199235 74.25902194 431.05930539 74.26077498 430.27563825 74.26258114 C427.72423837 74.26723694 425.17289559 74.26477671 422.62149334 74.26234722 C420.77481821 74.2642154 418.92814347 74.26651614 417.08146936 74.26921254 C412.0044914 74.27533604 406.92752991 74.2751963 401.8505491 74.27401817 C396.37599106 74.2738143 390.90143832 74.27933157 385.42688274 74.28407574 C374.70039862 74.29238581 363.97391999 74.29513074 353.24743291 74.29568812 C344.52959281 74.2961631 335.81175452 74.29821694 327.09391499 74.30138874 C306.40526082 74.3087628 285.71660787 74.31491346 265.02795219 74.31439018 C264.36635386 74.3143746 263.70475553 74.31435903 263.02310876 74.31434297 C259.6698713 74.31425987 256.31663385 74.31416083 252.96339639 74.31405827 C252.29743424 74.31403832 251.63147208 74.31401838 250.94532926 74.31399783 C249.59859157 74.31395739 248.25185388 74.31391559 246.90511619 74.31387244 C225.95203254 74.31325968 204.99896507 74.32076638 184.04588604 74.334445 C160.50385963 74.34980742 136.96184129 74.35839846 113.41980916 74.35748178 C100.95527303 74.35714959 88.49075514 74.35990603 76.02622318 74.37065983 C65.4143532 74.37975648 54.80250974 74.38194694 44.19063755 74.3751504 C38.77592484 74.37188102 33.36126304 74.37184365 27.94655514 74.38050365 C22.98900939 74.388351 18.03155507 74.38695528 13.0740116 74.37821952 C11.28131011 74.37668065 9.48860185 74.37851526 7.69590833 74.3840796 C-6.76658968 74.42599376 -18.8583418 73.75105333 -29.95972919 63.44113445 C-38.5084303 54.46585146 -40.19324857 44.58182549 -39.97535419 32.6559782 C-39.5313028 22.04880928 -34.35664174 15.20957485 -26.70972919 8.12863445 C-18.43178644 1.81670311 -10.32223338 -0.03029 0 0 Z " fill="#2C95F3" transform="translate(39.70972919464111,218.87136554718018)"/>
<path d="M0 0 C1.88241749 -0.00461257 3.76483138 -0.01096787 5.64723778 -0.01890898 C10.80455439 -0.03557644 15.96157417 -0.02736759 21.11889172 -0.0149641 C26.686805 -0.00590541 32.25466762 -0.01988742 37.8225708 -0.03088379 C48.72400523 -0.04866479 59.62532947 -0.04483085 70.52676821 -0.03323323 C79.38705633 -0.02419756 88.24731358 -0.02297549 97.10760498 -0.02732849 C98.36892758 -0.02794142 99.63025017 -0.02855436 100.92979467 -0.02918586 C103.49219403 -0.03046477 106.05459337 -0.03176162 108.61699271 -0.03307623 C131.9565518 -0.04415573 155.29604024 -0.03266831 178.63558564 -0.01170584 C199.93173119 0.00727592 221.22778106 0.00557738 242.52392578 -0.0135498 C266.46263723 -0.03497867 290.4012889 -0.04338218 314.3400135 -0.03110075 C316.89295577 -0.02982656 319.44589805 -0.02856908 321.99884033 -0.02732849 C323.88295626 -0.02640284 323.88295626 -0.02640284 325.80513513 -0.02545848 C334.65418112 -0.02200564 343.50319315 -0.02783255 352.35223389 -0.0372467 C363.13712107 -0.04846818 373.9218918 -0.04542338 384.70676565 -0.02412373 C390.20876315 -0.01361545 395.71056653 -0.00948789 401.21256256 -0.02272034 C406.25090746 -0.03465438 411.28887861 -0.02806471 416.32718968 -0.00681013 C418.14804886 -0.0023484 419.96893973 -0.00460067 421.78977847 -0.01431328 C434.90966247 -0.07891873 445.58430948 1.20085795 455.55322266 10.50793457 C463.83043829 19.31701948 466.05611232 27.37259603 465.9753418 39.19714355 C465.6229263 49.65290683 461.34602534 58.00795488 453.77587891 65.19543457 C443.08906061 73.93720823 431.22176722 74.08649447 418.06884766 74.01586914 C416.19452938 74.02048282 414.32021473 74.02683886 412.44590759 74.03477812 C407.31558343 74.05143039 402.18555804 74.04324368 397.055233 74.03083324 C391.51458492 74.0217683 385.97398756 74.03575966 380.43334961 74.04675293 C369.58719614 74.06452728 358.74115348 74.06070296 347.89499569 74.04910237 C339.07907643 74.04006407 330.26318819 74.03884577 321.44726562 74.04319763 C320.19191796 74.04381056 318.9365703 74.0444235 317.6431818 74.045055 C315.09286371 74.04633392 312.54254563 74.04763077 309.99222755 74.04894537 C286.76651124 74.06002303 263.54085975 74.04854052 240.31515718 74.02757498 C219.12625083 74.00859345 197.93744066 74.010292 176.74853516 74.02941895 C152.92627142 74.05085127 129.1040607 74.05924939 105.28178406 74.04696989 C102.74091594 74.04569571 100.20004782 74.04443823 97.65917969 74.04319763 C95.78400964 74.04227198 95.78400964 74.04227198 93.87095737 74.04132763 C85.06695323 74.03787581 76.26298323 74.04369946 67.45898438 74.05311584 C56.72794859 74.06434115 45.99702982 74.06128447 35.26600742 74.03999287 C29.79223249 74.02948974 24.31865258 74.02534823 18.84487915 74.03858948 C13.83119359 74.05053422 8.8178833 74.04391628 3.80423164 74.02267927 C1.99347872 74.01822206 0.1826939 74.02045959 -1.62803841 74.03018242 C-14.48134766 74.0938888 -25.21811848 73.05256758 -35.44287109 64.49230957 C-43.30235244 56.70943135 -46.71415945 48.05710228 -46.88427734 37.13293457 C-46.81135163 26.56896131 -43.71599284 18.31561047 -36.44677734 10.50793457 C-25.66110195 0.46609885 -14.0208402 -0.07478916 0 0 Z " fill="#3881F3" transform="translate(46.44677734375,402.4920654296875)"/>
<path d="M0 0 C1.87431827 -0.00461367 3.74863293 -0.01096972 5.62294006 -0.01890898 C10.75326422 -0.03556125 15.88328961 -0.02737454 21.01361465 -0.0149641 C26.55426273 -0.00589916 32.0948601 -0.01989052 37.63549805 -0.03088379 C48.48165152 -0.04865813 59.32769418 -0.04483382 70.17385197 -0.03323323 C78.98977123 -0.02419493 87.80565946 -0.02297663 96.62158203 -0.02732849 C97.87692969 -0.02794142 99.13227736 -0.02855436 100.42566586 -0.02918586 C102.97598395 -0.03046478 105.52630203 -0.03176163 108.0766201 -0.03307623 C131.30233641 -0.04415388 154.5279879 -0.03267138 177.75369048 -0.01170584 C198.94259682 0.00727569 220.131407 0.00557714 241.3203125 -0.0135498 C265.14257624 -0.03498213 288.96478696 -0.04338025 312.7870636 -0.03110075 C315.32793171 -0.02982657 317.86879984 -0.02856909 320.40966797 -0.02732849 C322.28483801 -0.02640284 322.28483801 -0.02640284 324.19789028 -0.02545848 C333.00189443 -0.02200667 341.80586442 -0.02783032 350.60986328 -0.0372467 C361.34089907 -0.04847201 372.07181783 -0.04541533 382.80284023 -0.02412373 C388.27661516 -0.0136206 393.75019507 -0.00947909 399.22396851 -0.02272034 C404.23765406 -0.03466508 409.25096436 -0.02804714 414.26461601 -0.00681013 C416.07536894 -0.00235292 417.88615376 -0.00459045 419.69688606 -0.01431328 C432.55019532 -0.07801966 443.28696613 0.96330156 453.51171875 9.52355957 C461.3712001 17.30643779 464.78300711 25.95876686 464.953125 36.88293457 C464.88019929 47.44690783 461.78484049 55.70025867 454.515625 63.50793457 C443.7299496 73.54977029 432.08968785 74.0906583 418.06884766 74.01586914 C416.18643016 74.02048171 414.30401627 74.02683701 412.42160988 74.03477812 C407.26429327 74.05144558 402.10727349 74.04323673 396.94995594 74.03083324 C391.38204266 74.02177455 385.81418004 74.03575656 380.24627686 74.04675293 C369.34484242 74.06453394 358.44351819 74.06069999 347.54207945 74.04910237 C338.68179133 74.0400667 329.82153408 74.03884463 320.96124268 74.04319763 C319.69992008 74.04381056 318.43859748 74.0444235 317.13905299 74.045055 C314.57665363 74.04633391 312.01425428 74.04763076 309.45185494 74.04894537 C286.11229586 74.06002488 262.77280742 74.04853745 239.43326202 74.02757498 C218.13711647 74.00859322 196.84106659 74.01029176 175.54492188 74.02941895 C151.60621043 74.05084781 127.66755876 74.05925132 103.72883415 74.04696989 C101.17589188 74.0456957 98.62294961 74.04443822 96.07000732 74.04319763 C94.81393004 74.04258053 93.55785276 74.04196343 92.26371253 74.04132763 C83.41466653 74.03787478 74.5656545 74.04370169 65.71661377 74.05311584 C54.93172659 74.06433732 44.14695585 74.06129252 33.362082 74.03999287 C27.86008451 74.02948459 22.35828113 74.02535703 16.8562851 74.03858948 C11.8179402 74.05052352 6.77996905 74.04393385 1.74165797 74.02267927 C-0.07920121 74.01821754 -1.90009207 74.02046981 -3.72093081 74.03018242 C-16.84081482 74.09478788 -27.51546182 72.81501119 -37.484375 63.50793457 C-45.76159063 54.69884966 -47.98726466 46.64327311 -47.90649414 34.81872559 C-47.55407865 24.36296231 -43.27717768 16.00791426 -35.70703125 8.82043457 C-25.02021295 0.07866091 -13.15291956 -0.07062533 0 0 Z " fill="#20AAF3" transform="translate(47.484375,35.4920654296875)"/>
</svg>
